<svg xmlns="http://www.w3.org/2000/svg" xmlns:xlink="http://www.w3.org/1999/xlink" width="1920" zoomAndPan="magnify" viewBox="0 0 1440 809.999993" height="1080" preserveAspectRatio="xMidYMid meet" version="1.0"><defs><g/><clipPath id="9f81c52446"><path d="M 1138 562.363281 L 1367 562.363281 L 1367 763.714844 L 1138 763.714844 Z M 1138 562.363281 " clip-rule="nonzero"/></clipPath><clipPath id="746740df30"><path d="M 538 607.496094 L 787 607.496094 L 787 763.714844 L 538 763.714844 Z M 538 607.496094 " clip-rule="nonzero"/></clipPath><clipPath id="b5b0f81441"><path d="M 1257 215 L 1439.71875 215 L 1439.71875 484 L 1257 484 Z M 1257 215 " clip-rule="nonzero"/></clipPath><clipPath id="57bcada274"><path d="M 291.203125 602 L 549.953125 602 L 549.953125 763.714844 L 291.203125 763.714844 Z M 291.203125 602 " clip-rule="nonzero"/></clipPath><clipPath id="ded1ef281a"><path d="M 613 58.472656 L 773 58.472656 L 773 209 L 613 209 Z M 613 58.472656 " clip-rule="nonzero"/></clipPath><clipPath id="21921df47a"><path d="M 973 543 L 1162 543 L 1162 763.714844 L 973 763.714844 Z M 973 543 " clip-rule="nonzero"/></clipPath><clipPath id="0e78e280c8"><path d="M 974.183594 549 L 1168 549 L 1168 763.714844 L 974.183594 763.714844 Z M 974.183594 549 " clip-rule="nonzero"/></clipPath><clipPath id="5d75e20224"><path d="M 310 639 L 384.472656 639 L 384.472656 763.714844 L 310 763.714844 Z M 310 639 " clip-rule="nonzero"/></clipPath><clipPath id="174437390c"><path d="M 317 626 L 560 626 L 560 763.714844 L 317 763.714844 Z M 317 626 " clip-rule="nonzero"/></clipPath><clipPath id="c54ebd1d97"><path d="M 266 325 L 577 325 L 577 763.714844 L 266 763.714844 Z M 266 325 " clip-rule="nonzero"/></clipPath><clipPath id="9360be39ff"><path d="M 53 490 L 293 490 L 293 763.714844 L 53 763.714844 Z M 53 490 " clip-rule="nonzero"/></clipPath><clipPath id="567ba65b4d"><path d="M 67 463.074219 L 272 463.074219 L 272 763.714844 L 67 763.714844 Z M 67 463.074219 " clip-rule="nonzero"/></clipPath></defs><rect x="-144" width="1728" fill="#ffffff" y="-80.999999" height="971.999992" fill-opacity="1"/><rect x="-144" width="1728" fill="#ffffff" y="-80.999999" height="971.999992" fill-opacity="1"/><rect x="-144" width="1728" fill="#ffffff" y="-80.999999" height="971.999992" fill-opacity="1"/><g clip-path="url(#9f81c52446)"><path fill="#42756d" d="M 1363.824219 763.714844 C 1370.3125 689.25 1364.472656 631.695312 1351.273438 581.933594 C 1333.210938 584.011719 1316.273438 588.84375 1300.84375 594.933594 C 1301.949219 585.140625 1302.558594 579.535156 1302.558594 579.535156 L 1159.667969 562.953125 C 1159.667969 562.953125 1128.085938 635.761719 1141.34375 763.714844 L 1363.824219 763.714844 " fill-opacity="1" fill-rule="nonzero"/></g><g clip-path="url(#746740df30)"><path fill="#42756d" d="M 759.316406 607.519531 C 673.167969 622.328125 626.96875 624.796875 538.046875 623.703125 C 540.152344 667.402344 540.527344 716.632812 543.640625 763.714844 L 786.84375 763.714844 C 778.710938 710.015625 769.015625 653.273438 759.316406 607.519531 " fill-opacity="1" fill-rule="nonzero"/></g><g clip-path="url(#b5b0f81441)"><path fill="#f29579" d="M 1426.855469 478.015625 C 1400.070312 492.152344 1383.453125 475.238281 1373.511719 454.472656 C 1363.261719 433.257812 1359.996094 407.976562 1359.996094 407.976562 L 1334.808594 363.070312 L 1310.164062 319.277344 L 1305.472656 310.851562 L 1295.941406 293.84375 L 1258.191406 226.675781 L 1257.710938 216.675781 C 1268.039062 215.242188 1278.769531 215.160156 1289.5 217.074219 C 1291.085938 217.390625 1292.675781 217.699219 1294.273438 218.015625 C 1295.707031 218.414062 1297.046875 218.8125 1298.480469 219.214844 C 1312.699219 223.339844 1326.535156 231.449219 1339.097656 245.28125 L 1339.097656 245.351562 C 1339.425781 245.667969 1339.652344 246 1339.886719 246.316406 C 1361.195312 275.003906 1384.242188 319.277344 1406.019531 387.082031 C 1406.101562 387.234375 1406.101562 387.316406 1406.101562 387.316406 C 1412.472656 355.523438 1439.574219 290.273438 1465.007812 268 C 1468.179688 269.609375 1468.179688 269.609375 1468.179688 269.609375 C 1468.179688 269.609375 1480.90625 449.394531 1426.855469 478.015625 " fill-opacity="1" fill-rule="nonzero"/></g><path fill="#ffffff" d="M 1343.695312 606.695312 C 1343.695312 606.695312 1321.925781 608.847656 1290.605469 608.695312 C 1274.632812 608.613281 1256.097656 607.894531 1236.71875 605.910156 C 1221.21875 604.476562 1205.164062 602.160156 1189.355469 598.75 C 1187.769531 531.582031 1189.425781 470.773438 1192.527344 418.554688 C 1194.75 380.957031 1197.699219 347.816406 1200.777344 319.925781 L 1200.777344 319.597656 C 1205.714844 274.921875 1210.816406 243.929688 1213.191406 230.015625 C 1214.695312 229.378906 1216.222656 228.675781 1217.890625 227.945312 C 1229.410156 223.023438 1243.160156 218.578125 1257.710938 216.675781 C 1268.039062 215.242188 1278.769531 215.160156 1289.5 217.074219 C 1291.085938 217.390625 1292.675781 217.699219 1294.273438 218.015625 C 1295.707031 218.414062 1297.046875 218.8125 1298.480469 219.214844 L 1310.164062 319.277344 L 1317.484375 381.6875 L 1343.695312 606.695312 " fill-opacity="1" fill-rule="nonzero"/><path fill="#f29579" d="M 1380.820312 649.019531 C 1359.996094 671.503906 1317.707031 670.796875 1301.582031 641.378906 C 1296.175781 631.53125 1292.675781 617.296875 1290.605469 599.667969 C 1281.875 526.199219 1297.210938 403.6875 1295.941406 293.84375 C 1295.707031 271.820312 1294.742188 250.605469 1292.839844 230.882812 C 1292.757812 229.378906 1292.59375 227.945312 1292.4375 226.523438 C 1292.675781 222.871094 1293.320312 220.082031 1294.273438 218.015625 C 1295.707031 218.414062 1297.046875 218.8125 1298.480469 219.214844 C 1312.699219 223.339844 1326.535156 231.449219 1339.097656 245.28125 C 1339.167969 245.210938 1339.167969 245.210938 1339.167969 245.117188 C 1339.425781 245.515625 1339.652344 245.917969 1339.886719 246.316406 C 1353.167969 268 1367.398438 304.410156 1372.734375 363.234375 C 1375.027344 389.066406 1375.589844 419.273438 1373.511719 454.472656 C 1373.261719 458.304688 1373.039062 462.265625 1372.734375 466.25 C 1365.964844 559.554688 1407.617188 620 1380.820312 649.019531 " fill-opacity="1" fill-rule="nonzero"/><path fill="#f29579" d="M 1236.71875 593.875 C 1235.132812 614.148438 1232.347656 629.636719 1228.082031 638.371094 C 1210.957031 673.101562 1140.226562 667.390625 1123.386719 641.003906 C 1106.53125 614.699219 1102.242188 589.207031 1105.652344 547.003906 C 1114.394531 436.445312 1175.828125 293.609375 1202.929688 235.035156 C 1205.011719 234 1207.160156 232.871094 1209.464844 231.765625 C 1210.652344 231.214844 1211.921875 230.648438 1213.191406 230.015625 C 1214.695312 229.378906 1216.222656 228.675781 1217.890625 227.945312 C 1224.566406 293.691406 1244.675781 494.351562 1236.71875 593.875 " fill-opacity="1" fill-rule="nonzero"/><path fill="#f29579" d="M 1205.644531 401.632812 C 1201.273438 407.097656 1196.898438 412.75 1192.527344 418.554688 C 1162.101562 458.609375 1131.484375 505.269531 1105.652344 547.003906 C 1065.902344 611 1037.308594 663.535156 1037.308594 663.535156 C 1037.308594 663.535156 1037.308594 663.535156 1023.78125 654.554688 C 1055.585938 398.847656 1140.546875 287.488281 1184.03125 246.152344 C 1184.03125 246.234375 1184.03125 246.316406 1184.113281 246.386719 C 1184.113281 246.386719 1191.269531 241.144531 1202.929688 235.035156 C 1205.011719 234 1207.160156 232.871094 1209.464844 231.765625 C 1207.3125 246.234375 1202.554688 282.46875 1200.777344 319.597656 L 1200.777344 319.925781 C 1199.367188 350.4375 1199.921875 381.523438 1205.644531 401.632812 " fill-opacity="1" fill-rule="nonzero"/><path fill="#f29579" d="M 1406.101562 387.316406 C 1406.101562 387.316406 1391.398438 371.425781 1372.734375 363.234375 C 1360.722656 357.910156 1347.113281 355.769531 1334.808594 363.070312 C 1328.601562 366.65625 1322.738281 372.613281 1317.484375 381.6875 C 1314.054688 387.550781 1310.960938 394.636719 1308.257812 403.21875 C 1309.363281 368.710938 1308.011719 337.648438 1305.472656 310.851562 C 1302.3125 277.003906 1297.210938 249.808594 1292.839844 230.882812 C 1291.652344 225.65625 1290.453125 221.035156 1289.5 217.074219 C 1291.085938 217.390625 1292.675781 217.699219 1294.273438 218.015625 C 1295.707031 218.414062 1297.046875 218.8125 1298.480469 219.214844 C 1312.699219 223.339844 1326.535156 231.519531 1339.097656 245.351562 C 1339.167969 245.28125 1339.167969 245.210938 1339.167969 245.117188 C 1339.496094 244.566406 1338.933594 245.917969 1339.097656 245.351562 C 1383.054688 300.851562 1404.761719 381.921875 1406.019531 387.082031 C 1406.101562 387.234375 1406.101562 387.316406 1406.101562 387.316406 " fill-opacity="1" fill-rule="nonzero"/><path fill="#f7bcaa" d="M 1222.332031 141.609375 C 1198.828125 150.425781 1188.027344 238.148438 1217.128906 248.398438 C 1269.628906 266.894531 1301.476562 195.992188 1301.476562 195.992188 C 1301.476562 195.992188 1321.222656 104.515625 1222.332031 141.609375 " fill-opacity="1" fill-rule="nonzero"/><path fill="#ed6a66" d="M 1289.101562 106.1875 C 1289.101562 98.347656 1279.96875 88.085938 1259.085938 86.933594 C 1238.457031 85.757812 1232.617188 102.671875 1232.195312 109.664062 C 1208.535156 108.371094 1200.179688 119.796875 1194.078125 127.625 C 1187.933594 135.554688 1180.515625 162.257812 1201.53125 171.921875 C 1201.53125 171.921875 1201.941406 172.027344 1202.71875 172.332031 C 1205.09375 173.167969 1207.394531 173.71875 1209.734375 173.871094 C 1210.15625 173.871094 1210.628906 173.941406 1211.191406 174.011719 C 1223.851562 175.480469 1246.957031 173.765625 1267.734375 148.800781 C 1254.984375 196.332031 1269.578125 286.242188 1284.070312 284.007812 C 1301.207031 281.363281 1335.101562 247.433594 1344.84375 233.777344 C 1361.59375 210.246094 1335.136719 91.695312 1289.101562 106.1875 " fill-opacity="1" fill-rule="nonzero"/><g clip-path="url(#57bcada274)"><path fill="#87806e" d="M 549.210938 763.714844 C 542.125 739.210938 536.496094 723.121094 536.496094 723.121094 L 504.105469 619.109375 L 367.523438 602.78125 C 367.523438 602.78125 320.773438 606.121094 298.183594 661.996094 C 294.609375 687.992188 292.449219 723.53125 291.285156 763.714844 L 549.210938 763.714844 " fill-opacity="1" fill-rule="nonzero"/></g><path fill="#ed6a66" d="M 813.003906 498.371094 C 807.503906 400.09375 791.402344 343.371094 776.335938 310.980469 L 776.3125 310.898438 L 776.242188 310.769531 C 760.421875 276.886719 745.777344 269.761719 745.777344 269.761719 L 745.824219 269.917969 C 745.8125 269.917969 745.800781 269.894531 745.789062 269.882812 C 744.449219 268.90625 743.097656 268.070312 741.699219 267.167969 C 731.113281 260.382812 719.746094 254.730469 707.734375 249.949219 C 698.933594 246.492188 689.589844 243.53125 680.023438 241.378906 C 658.949219 236.503906 651.96875 235.585938 651.96875 235.585938 C 651.96875 235.585938 647.265625 235.609375 639.144531 236.21875 C 637.804688 236.351562 636.265625 236.480469 634.761719 236.632812 C 634.679688 236.550781 634.515625 236.679688 634.328125 236.609375 C 622.128906 238.441406 606.179688 243.226562 597.433594 247.117188 C 586.292969 252.027344 573.363281 258.84375 560.191406 268.339844 C 556.101562 271.210938 552.023438 274.394531 547.964844 277.824219 L 547.953125 277.777344 C 547.847656 277.882812 547.71875 277.96875 547.601562 278.0625 C 501.390625 316.953125 441.378906 398.644531 435.375 536.53125 C 434.386719 559.414062 500.753906 690.765625 507.714844 726.105469 C 557.757812 744.253906 615.523438 711.554688 689.742188 681.46875 C 727.855469 679.460938 747.402344 706.042969 775.488281 690 C 811.59375 635.84375 814.828125 531.03125 813.003906 498.371094 " fill-opacity="1" fill-rule="nonzero"/><path fill="#f7bcaa" d="M 648.984375 253.285156 C 648.984375 253.285156 615.664062 250.453125 617.53125 271.421875 C 619.425781 292.398438 639.839844 316.304688 662.050781 318.679688 C 684.230469 321.042969 704.234375 281.070312 700.625 268.363281 C 696.980469 255.648438 648.984375 253.285156 648.984375 253.285156 " fill-opacity="1" fill-rule="nonzero"/><path fill="#f7bcaa" d="M 649.253906 208.648438 C 649.253906 208.648438 635.324219 85.441406 694.160156 102.027344 C 752.984375 118.597656 766.746094 164.726562 749.398438 200.738281 C 732.074219 236.773438 681.902344 222.328125 681.902344 222.328125 L 649.253906 208.648438 " fill-opacity="1" fill-rule="nonzero"/><g clip-path="url(#ded1ef281a)"><path fill="#42756d" d="M 649.253906 208.648438 C 649.253906 208.648438 589.605469 192.394531 626.359375 158.710938 C 616.460938 130.386719 599.363281 96.207031 636.710938 92.246094 C 650.652344 70.550781 693.457031 25.984375 708.628906 61.949219 C 731.039062 59.1875 773.996094 22.128906 772.058594 66.648438 C 770.132812 111.15625 779.332031 144.910156 753.136719 149.34375 C 721.613281 147.96875 659.453125 165.140625 649.253906 208.648438 " fill-opacity="1" fill-rule="nonzero"/></g><path fill="#f3bbaa" d="M 702.316406 163.859375 C 702.316406 163.859375 661.476562 120.277344 676.8125 173.894531 C 689.542969 180.03125 702.316406 163.859375 702.316406 163.859375 " fill-opacity="1" fill-rule="nonzero"/><path fill="#f3bbaa" d="M 649.253906 208.648438 C 649.253906 208.648438 639.414062 262.605469 639.957031 273.769531 C 639.734375 278.8125 697.367188 292.585938 704.457031 223.984375 C 693.867188 211.328125 649.253906 208.648438 649.253906 208.648438 " fill-opacity="1" fill-rule="nonzero"/><path fill="#f7bcaa" d="M 924.75 420.683594 C 924.75 420.683594 899.09375 475.5 894.957031 502.402344 C 875.296875 455.835938 836.746094 436.585938 813.453125 402.949219 C 810.644531 398.894531 793.472656 383.992188 785.867188 383.191406 C 777.734375 382.308594 779.003906 395.648438 770.753906 394.769531 C 752.453125 392.792969 712.332031 372.273438 713.976562 381.535156 C 722.917969 432.257812 795.597656 419.601562 795.597656 419.601562 C 795.597656 419.601562 853.941406 601.539062 905.300781 599.714844 C 956.683594 597.859375 996.398438 510.6875 996.398438 510.6875 L 924.75 420.683594 " fill-opacity="1" fill-rule="nonzero"/><g clip-path="url(#21921df47a)"><path fill="#3d3542" d="M 1146.421875 763.714844 C 1160.160156 707.914062 1167.246094 654.941406 1154.214844 628.476562 C 1120.707031 560.414062 1035.121094 487.523438 977.15625 607.507812 C 977.15625 607.507812 966.933594 662.617188 979.554688 763.714844 L 1146.421875 763.714844 " fill-opacity="1" fill-rule="nonzero"/></g><g clip-path="url(#0e78e280c8)"><path fill="#3d3542" d="M 1163.0625 763.714844 C 1169.773438 703.164062 1170.234375 645.28125 1152.722656 619.613281 C 1109.964844 556.933594 1015 496.808594 974.476562 623.75 C 974.476562 623.75 972.339844 674.324219 995.058594 763.714844 L 1163.0625 763.714844 " fill-opacity="1" fill-rule="nonzero"/></g><path fill="#ccefe8" d="M 1178.058594 662.558594 C 1176.578125 671.585938 1174.898438 680.035156 1173.03125 687.710938 C 1172.21875 690.835938 1171.410156 693.761719 1170.621094 696.617188 C 1124.527344 735.496094 966.542969 728.363281 947.679688 691.507812 C 941.804688 680.023438 917.230469 546.992188 923.941406 432.660156 C 924.117188 428.628906 924.421875 424.65625 924.75 420.683594 C 926.5625 398.023438 929.839844 376.210938 935.011719 356.535156 C 934.917969 356.476562 934.917969 356.476562 935.011719 356.417969 C 940.640625 334.699219 948.515625 315.433594 959.316406 300.121094 C 972.316406 281.527344 989.59375 268.742188 1012.15625 264.378906 C 1016.035156 263.628906 1023.804688 263.511719 1033.96875 265.074219 C 1064.175781 269.703125 1115.5 289.261719 1148.207031 351.539062 C 1176.792969 406.085938 1183.289062 485.699219 1184.582031 556.324219 C 1185.277344 595.367188 1182.984375 632.316406 1178.058594 662.558594 " fill-opacity="1" fill-rule="nonzero"/><path fill="#f3bbaa" d="M 1016.480469 434.726562 C 1016.480469 434.726562 939.125 377.5625 950.773438 413.925781 C 962.394531 450.324219 968.367188 463.003906 1003.964844 455.707031 C 1025.992188 451.171875 1016.480469 434.726562 1016.480469 434.726562 " fill-opacity="1" fill-rule="nonzero"/><path fill="#f7bcaa" d="M 1242.59375 527.671875 C 1216.714844 576.808594 1063.597656 571.332031 1003.941406 454.953125 C 1002.859375 453.839844 1014.109375 433.105469 1014.109375 433.105469 C 1014.109375 433.105469 1097.519531 489.859375 1144.425781 482.210938 C 1116.769531 466.871094 1093.0625 450.382812 1073.203125 433.644531 C 1119.742188 412.410156 1137.019531 366.972656 1143.519531 347.507812 C 1204.832031 399.890625 1270.929688 473.910156 1242.59375 527.671875 " fill-opacity="1" fill-rule="nonzero"/><path fill="#f3bbaa" d="M 1039.566406 184.71875 C 1039.566406 184.71875 1035.0625 218.121094 1015.152344 230.308594 C 995.269531 242.507812 1012.261719 256.496094 1011.300781 266.894531 C 1010.464844 275.863281 1003.203125 311.746094 982.667969 299.535156 C 962.125 287.335938 968.121094 242.648438 960.398438 251.066406 C 958.035156 253.613281 941.96875 262.195312 934.707031 261.769531 C 925.480469 261.195312 900.894531 232.671875 899.613281 225.808594 C 897.964844 216.96875 905.019531 187.433594 914.644531 177.386719 C 924.269531 167.300781 1039.566406 179.605469 1039.566406 184.71875 " fill-opacity="1" fill-rule="nonzero"/><path fill="#f3bbaa" d="M 915.230469 184.273438 C 915.230469 184.273438 903.644531 165.328125 904.101562 160.296875 C 904.101562 160.296875 1053.023438 60.171875 1038.484375 182.542969 C 1006.808594 197.105469 915.230469 184.273438 915.230469 184.273438 " fill-opacity="1" fill-rule="nonzero"/><path fill="#3d3542" d="M 1021.359375 221.058594 C 1021.359375 221.058594 1074.824219 196.238281 1052.5625 138.046875 C 1047.722656 125.332031 1005.527344 108.078125 970.351562 99.675781 C 949.257812 94.621094 949.433594 71.28125 924.199219 96.960938 C 894.476562 127.1875 904.101562 160.296875 904.101562 160.296875 L 947.75 152.597656 C 947.75 152.597656 978.542969 188.539062 1021.359375 221.058594 " fill-opacity="1" fill-rule="nonzero"/><path fill="#f3bbaa" d="M 967.425781 176.550781 C 967.425781 176.550781 1002.519531 153.457031 987.125 195.402344 C 970.859375 195.402344 967.425781 176.550781 967.425781 176.550781 " fill-opacity="1" fill-rule="nonzero"/><path fill="#f29579" d="M 382.78125 220.484375 C 382.78125 220.484375 353.878906 224.949219 336.109375 242.496094 C 318.339844 260.03125 327.378906 271.101562 321.277344 281.585938 C 315.191406 292.058594 282.234375 278.261719 261.855469 296.925781 C 241.488281 315.566406 257.589844 340.703125 242.640625 358.734375 C 227.691406 376.773438 192.289062 361.179688 168.820312 393.59375 C 65.851562 535.839844 254.945312 633.082031 321.277344 581.839844 C 369.992188 544.21875 434.679688 276.839844 416.628906 228.992188 C 398.578125 181.144531 382.78125 220.484375 382.78125 220.484375 " fill-opacity="1" fill-rule="nonzero"/><g clip-path="url(#5d75e20224)"><path fill="#4a7eff" d="M 353.972656 763.714844 C 380.886719 691.578125 384.460938 639.347656 384.460938 639.347656 L 314.800781 639.347656 C 314.800781 639.347656 311.382812 703.445312 310.253906 763.714844 L 353.972656 763.714844 " fill-opacity="1" fill-rule="nonzero"/></g><g clip-path="url(#174437390c)"><path fill="#f37d59" d="M 558.566406 763.714844 C 559.964844 715.894531 559.472656 675.816406 559.578125 647.078125 L 538.566406 644.835938 L 374.730469 626.78125 C 374.730469 626.78125 346.722656 694.492188 319.632812 756.40625 C 319.019531 758.78125 318.433594 761.234375 317.859375 763.714844 L 558.566406 763.714844 " fill-opacity="1" fill-rule="nonzero"/></g><g clip-path="url(#c54ebd1d97)"><path fill="#943e38" d="M 275.910156 763.714844 L 564.101562 763.714844 C 570.875 697.277344 578.6875 601.796875 575.316406 567.757812 C 552.714844 338.402344 493.785156 330.386719 493.785156 330.386719 C 493.785156 330.386719 472.066406 331.890625 470.292969 325.542969 C 226.761719 311.839844 268.859375 652.96875 268.859375 652.96875 C 268.859375 652.96875 270.292969 711.039062 275.910156 763.714844 " fill-opacity="1" fill-rule="nonzero"/></g><path fill="#f3bbaa" d="M 459.1875 523.613281 C 423.679688 513.273438 371.332031 591.464844 297.195312 554.324219 C 305.929688 544.910156 315.589844 532.371094 325.273438 518.445312 C 320.40625 516.761719 315.519531 515.105469 310.558594 513.53125 C 285.773438 505.644531 262.429688 507.324219 237.84375 508.792969 C 237.105469 512.132812 236.363281 515.46875 235.648438 518.914062 C 207.332031 653.027344 283.984375 697.980469 425.300781 574.386719 C 425.300781 574.386719 438.6875 568.511719 470.164062 571.25 C 519.359375 581.769531 540.316406 547.238281 459.1875 523.613281 " fill-opacity="1" fill-rule="nonzero"/><path fill="#943e38" d="M 364.855469 328.832031 C 364.855469 328.832031 266.203125 361.519531 235.648438 518.914062 C 247.140625 517.679688 286.171875 530.125 305.539062 544.3125 C 357.160156 517.222656 454.109375 406.484375 435.398438 374.246094 C 416.710938 341.996094 415.324219 292.871094 364.855469 328.832031 " fill-opacity="1" fill-rule="nonzero"/><path fill="#ffffff" d="M 404.207031 288.886719 C 404.207031 288.886719 349.015625 295.738281 355.183594 332.464844 C 361.367188 369.15625 419.613281 348.847656 437.03125 346.851562 C 454.472656 344.875 482.855469 356.816406 491.363281 338.519531 C 501.660156 316.421875 485.769531 275.757812 404.207031 288.886719 " fill-opacity="1" fill-rule="nonzero"/><path fill="#f7bcaa" d="M 459.292969 246.070312 C 459.292969 246.070312 478.132812 318.574219 433.304688 326.070312 C 415.3125 329.082031 407.613281 316.246094 406.015625 309.464844 C 401.410156 289.992188 417.769531 268.730469 410.847656 238.476562 C 434.503906 240.417969 459.292969 246.070312 459.292969 246.070312 " fill-opacity="1" fill-rule="nonzero"/><path fill="#f7bcaa" d="M 408.050781 230.0625 C 409.460938 236.230469 411.363281 248.054688 412.480469 253.875 C 417.78125 281.386719 442.34375 281.644531 472.960938 280.164062 C 535.273438 277.144531 524.554688 160.191406 446.820312 162.351562 C 420.4375 163.09375 400.351562 196.355469 408.050781 230.0625 " fill-opacity="1" fill-rule="nonzero"/><path fill="#f29579" d="M 511.863281 218.003906 C 558.96875 149.214844 453.425781 109.488281 433.8125 148.800781 C 351.554688 149.671875 342.480469 237.714844 412.480469 253.875 C 402.441406 195.613281 436.386719 200.773438 437.148438 176.914062 C 453.945312 216.546875 508.464844 222.953125 511.863281 218.003906 " fill-opacity="1" fill-rule="nonzero"/><path fill="#f3bbaa" d="M 418.660156 229.828125 C 413.21875 233.011719 405.429688 229.804688 401.246094 222.667969 C 397.082031 215.535156 398.105469 207.179688 403.535156 204.003906 C 409 200.820312 416.769531 204.027344 420.964844 211.152344 C 425.113281 218.285156 424.101562 226.640625 418.660156 229.828125 " fill-opacity="1" fill-rule="nonzero"/><path fill="#ffffff" d="M 247.292969 367.242188 C 247.292969 367.242188 280.601562 433.765625 283.222656 454.519531 C 286.207031 478.285156 336.792969 611.46875 302.824219 694.007812 L 283.222656 692.644531 C 283.222656 692.644531 261.019531 629.601562 251.867188 569.523438 C 239.019531 485.277344 241.195312 385.671875 247.292969 367.242188 " fill-opacity="1" fill-rule="nonzero"/><g clip-path="url(#9360be39ff)"><path fill="#42756d" d="M 291.285156 763.714844 C 297.101562 683.984375 284.527344 666.953125 284.527344 666.953125 C 216.84375 521.828125 100.382812 440.617188 61.269531 522.933594 C 40.21875 567.183594 64.066406 672.59375 91.261719 763.714844 L 291.285156 763.714844 " fill-opacity="1" fill-rule="nonzero"/></g><g clip-path="url(#567ba65b4d)"><path fill="#42756d" d="M 225.304688 763.714844 C 274.855469 607.941406 271.128906 517.234375 271.128906 517.234375 C 223.824219 363.714844 130.351562 577.878906 82.011719 654.765625 C 67.640625 677.625 65.511719 719.761719 68.308594 763.714844 L 225.304688 763.714844 " fill-opacity="1" fill-rule="nonzero"/></g><path fill="#8eaca6" d="M 53.6875 677.765625 C 97.421875 738.554688 283.644531 714.035156 283.644531 710.511719 C 285.679688 692.714844 287.242188 675.394531 288.394531 658.339844 C 294.929688 564.164062 288.074219 483.136719 277.003906 418.566406 C 274.867188 406.015625 272.5625 394.121094 270.164062 382.804688 C 221.8125 321.910156 184.863281 267.035156 179.007812 239.699219 C 177.339844 240.296875 175.671875 241.050781 173.992188 241.910156 C 167.515625 245.058594 160.617188 249.925781 152.507812 255.660156 C 36.28125 338.152344 20.605469 631.753906 53.6875 677.765625 " fill-opacity="1" fill-rule="nonzero"/><path fill="#ffffff" d="M 133.351562 292.035156 C 155.503906 274.675781 197.933594 297.171875 207.875 358.910156 C 217.816406 420.660156 220.496094 530.289062 220.496094 530.289062 C 250.125 567.664062 272.269531 617.25 291.0625 672.347656 L 277.371094 687.003906 C 277.371094 687.003906 158.664062 581.382812 143.292969 546.722656 C 118.152344 490.144531 58.8125 350.339844 133.351562 292.035156 " fill-opacity="1" fill-rule="nonzero"/><path fill="#ffffff" d="M 217.171875 448.679688 C 213.304688 427.125 210.601562 375.832031 207.875 358.910156 C 197.933594 297.171875 155.503906 274.675781 133.351562 292.035156 C 83.578125 330.960938 95.929688 412.738281 115.484375 475.3125 C 157.300781 471.257812 198.882812 460.855469 217.171875 448.679688 " fill-opacity="1" fill-rule="nonzero"/><path fill="#f3bbaa" d="M 286.925781 660.078125 C 286.925781 660.078125 323.324219 667.601562 307.972656 709.324219 C 284.65625 772.671875 269.613281 705.621094 272.105469 682.480469 C 286.617188 672.796875 286.925781 660.078125 286.925781 660.078125 " fill-opacity="1" fill-rule="nonzero"/><path fill="#ffffff" d="M 179.007812 239.699219 C 184.863281 267.035156 221.8125 321.910156 270.164062 382.804688 C 270.164062 382.757812 270.164062 382.757812 270.164062 382.699219 C 252.019531 297.394531 228.488281 249.277344 228.488281 249.277344 C 228.488281 249.277344 210.683594 227.957031 179.007812 239.699219 " fill-opacity="1" fill-rule="nonzero"/><path fill="#f3bbaa" d="M 165.683594 149.191406 C 165.683594 149.191406 170.289062 184.671875 190.714844 197.636719 C 211.140625 210.609375 193.699219 225.488281 194.6875 236.539062 C 195.535156 246.09375 223.777344 272.523438 231.617188 267.105469 C 252.019531 253.015625 239.019531 210.75 246.953125 219.707031 C 249.375 222.433594 265.851562 231.542969 273.3125 231.074219 C 282.777344 230.496094 302.167969 195.25 303.484375 187.953125 C 305.152344 178.585938 302.085938 161.71875 292.191406 151.023438 C 282.304688 140.316406 165.683594 143.738281 165.683594 149.191406 " fill-opacity="1" fill-rule="nonzero"/><path fill="#f3bbaa" d="M 292.191406 151.023438 C 292.191406 151.023438 307.351562 130.773438 303.613281 125.519531 C 294.621094 112.957031 150.730469 19.074219 165.683594 149.191406 C 198.191406 164.667969 292.191406 151.023438 292.191406 151.023438 " fill-opacity="1" fill-rule="nonzero"/><path fill="#3d3542" d="M 183.265625 190.136719 C 183.265625 190.136719 131.410156 139.1875 154.257812 77.320312 C 162.25 55.683594 277.699219 74.511719 294.988281 87.15625 C 328.304688 111.511719 312.898438 126.613281 303.121094 129.621094 C 285.335938 135.085938 258.800781 117.339844 258.800781 117.339844 C 258.800781 117.339844 227.183594 155.558594 183.265625 190.136719 " fill-opacity="1" fill-rule="nonzero"/><path fill="#f3bbaa" d="M 238.609375 142.820312 C 238.609375 142.820312 202.585938 118.246094 218.394531 162.835938 C 235.082031 162.835938 238.609375 142.820312 238.609375 142.820312 " fill-opacity="1" fill-rule="nonzero"/><path fill="#7dafbf" d="M 179.007812 239.699219 C 184.863281 267.035156 221.8125 321.910156 270.164062 382.804688 C 272.5625 394.121094 274.867188 406.015625 277.003906 418.566406 C 216.371094 364.9375 178.75 281.808594 166.785156 245.929688 L 179.007812 239.699219 " fill-opacity="1" fill-rule="nonzero"/><path fill="#f3bbaa" d="M 1033.96875 265.074219 C 1024.308594 300.449219 994.070312 327.71875 972.5625 331.441406 C 959.082031 333.792969 957.941406 315.648438 959.316406 300.121094 C 972.316406 281.527344 987.652344 269.070312 1010.21875 264.710938 C 1014.097656 263.957031 1023.804688 263.511719 1033.96875 265.074219 " fill-opacity="1" fill-rule="nonzero"/><path fill="#ffffff" d="M 358.78125 320.429688 C 358.78125 320.429688 313.648438 339.480469 341.726562 379.59375 C 369.816406 419.707031 433.800781 415.699219 461.078125 415.699219 C 486.148438 415.699219 534.285156 389.621094 533.289062 369.570312 C 536.296875 339.480469 520.253906 315.410156 492.164062 317.421875 C 468.09375 331.453125 405.921875 342.492188 405.921875 342.492188 L 358.78125 320.429688 " fill-opacity="1" fill-rule="nonzero"/><g fill="#1b2538" fill-opacity="1"><g transform="translate(201.057969, 449.743063)"><g><path d="M 76.625 -82.625 C 76.625 -80.570312 76.378906 -78.410156 75.890625 -76.140625 C 75.398438 -73.867188 74.613281 -71.757812 73.53125 -69.8125 C 72.457031 -67.863281 71.050781 -66.238281 69.3125 -64.9375 C 67.582031 -63.632812 65.472656 -62.984375 62.984375 -62.984375 C 59.203125 -62.984375 56.390625 -63.660156 54.546875 -65.015625 C 52.703125 -66.367188 51.398438 -68.070312 50.640625 -70.125 C 49.890625 -72.1875 49.484375 -74.378906 49.421875 -76.703125 C 49.367188 -79.023438 49.289062 -81.210938 49.1875 -83.265625 C 49.082031 -85.328125 48.726562 -87.035156 48.125 -88.390625 C 47.53125 -89.742188 46.257812 -90.421875 44.3125 -90.421875 C 42.15625 -90.421875 40.265625 -89.632812 38.640625 -88.0625 C 37.015625 -86.5 35.601562 -84.472656 34.40625 -81.984375 C 33.21875 -79.492188 32.21875 -76.675781 31.40625 -73.53125 C 30.59375 -70.394531 29.941406 -67.285156 29.453125 -64.203125 C 28.972656 -61.117188 28.625 -58.195312 28.40625 -55.4375 C 28.1875 -52.675781 28.078125 -50.429688 28.078125 -48.703125 C 28.078125 -46.429688 28.160156 -43.722656 28.328125 -40.578125 C 28.492188 -37.441406 29.007812 -34.4375 29.875 -31.5625 C 30.738281 -28.695312 32.035156 -26.265625 33.765625 -24.265625 C 35.492188 -22.265625 37.984375 -21.265625 41.234375 -21.265625 C 43.398438 -21.265625 45.507812 -21.535156 47.5625 -22.078125 C 49.625 -22.617188 51.679688 -23.238281 53.734375 -23.9375 C 55.785156 -24.644531 57.867188 -25.269531 59.984375 -25.8125 C 62.097656 -26.351562 64.234375 -26.625 66.390625 -26.625 C 68.878906 -26.625 70.9375 -25.617188 72.5625 -23.609375 C 74.1875 -21.609375 75 -19.367188 75 -16.890625 C 75 -13.421875 73.914062 -10.195312 71.75 -7.21875 C 69.582031 -4.25 66.898438 -1.628906 63.703125 0.640625 C 60.515625 2.921875 57.054688 4.707031 53.328125 6 C 49.597656 7.300781 46.21875 7.953125 43.1875 7.953125 C 35.394531 7.953125 28.789062 6.191406 23.375 2.671875 C 17.96875 -0.835938 13.582031 -5.378906 10.21875 -10.953125 C 6.863281 -16.523438 4.457031 -22.75 3 -29.625 C 1.539062 -36.5 0.8125 -43.34375 0.8125 -50.15625 C 0.8125 -54.707031 1.242188 -59.6875 2.109375 -65.09375 C 2.972656 -70.507812 4.269531 -75.945312 6 -81.40625 C 7.738281 -86.875 9.929688 -92.148438 12.578125 -97.234375 C 15.234375 -102.328125 18.34375 -106.820312 21.90625 -110.71875 C 25.476562 -114.613281 29.507812 -117.75 34 -120.125 C 38.5 -122.507812 43.453125 -123.703125 48.859375 -123.703125 C 54.160156 -123.703125 58.597656 -122.375 62.171875 -119.71875 C 65.742188 -117.070312 68.613281 -113.71875 70.78125 -109.65625 C 72.945312 -105.601562 74.460938 -101.164062 75.328125 -96.34375 C 76.191406 -91.53125 76.625 -86.957031 76.625 -82.625 Z M 76.625 -82.625 "/></g></g></g><g fill="#1b2538" fill-opacity="1"><g transform="translate(279.29765, 449.743063)"><g><path d="M 35.71875 4.703125 C 30.195312 4.703125 25.378906 3.238281 21.265625 0.3125 C 17.148438 -2.601562 13.6875 -6.332031 10.875 -10.875 C 8.0625 -15.414062 5.953125 -20.472656 4.546875 -26.046875 C 3.140625 -31.628906 2.4375 -37.125 2.4375 -42.53125 C 2.4375 -48.269531 3.140625 -54.195312 4.546875 -60.3125 C 5.953125 -66.425781 8.113281 -72 11.03125 -77.03125 C 13.957031 -82.0625 17.691406 -86.171875 22.234375 -89.359375 C 26.785156 -92.554688 32.195312 -94.15625 38.46875 -94.15625 C 44.53125 -94.15625 49.695312 -92.503906 53.96875 -89.203125 C 58.25 -85.898438 61.6875 -81.785156 64.28125 -76.859375 C 66.882812 -71.941406 68.722656 -66.5625 69.796875 -60.71875 C 70.878906 -54.875 71.257812 -49.351562 70.9375 -44.15625 C 70.613281 -38.414062 69.722656 -32.625 68.265625 -26.78125 C 66.804688 -20.9375 64.664062 -15.6875 61.84375 -11.03125 C 59.03125 -6.382812 55.457031 -2.601562 51.125 0.3125 C 46.800781 3.238281 41.664062 4.703125 35.71875 4.703125 Z M 37.34375 -68.671875 C 35.71875 -68.671875 34.28125 -67.800781 33.03125 -66.0625 C 31.789062 -64.332031 30.765625 -62.222656 29.953125 -59.734375 C 29.140625 -57.242188 28.515625 -54.617188 28.078125 -51.859375 C 27.648438 -49.109375 27.4375 -46.703125 27.4375 -44.640625 C 27.4375 -42.046875 27.675781 -39.234375 28.15625 -36.203125 C 28.644531 -33.171875 29.320312 -30.382812 30.1875 -27.84375 C 31.0625 -25.300781 32.117188 -23.191406 33.359375 -21.515625 C 34.609375 -19.835938 36.039062 -19 37.65625 -19 C 39.394531 -19 40.882812 -19.804688 42.125 -21.421875 C 43.375 -23.046875 44.375 -25.101562 45.125 -27.59375 C 45.882812 -30.082031 46.425781 -32.816406 46.75 -35.796875 C 47.070312 -38.773438 47.234375 -41.5625 47.234375 -44.15625 C 47.234375 -46.539062 47.015625 -49.164062 46.578125 -52.03125 C 46.148438 -54.894531 45.53125 -57.570312 44.71875 -60.0625 C 43.90625 -62.550781 42.875 -64.609375 41.625 -66.234375 C 40.382812 -67.859375 38.957031 -68.671875 37.34375 -68.671875 Z M 37.34375 -68.671875 "/></g></g></g><g fill="#1b2538" fill-opacity="1"><g transform="translate(353.64158, 449.743063)"><g><path d="M 103.40625 -53.578125 C 103.40625 -51.515625 103.40625 -48.722656 103.40625 -45.203125 C 103.40625 -41.691406 103.320312 -37.878906 103.15625 -33.765625 C 103 -29.648438 102.648438 -25.507812 102.109375 -21.34375 C 101.566406 -17.175781 100.726562 -13.414062 99.59375 -10.0625 C 98.457031 -6.707031 97.019531 -3.945312 95.28125 -1.78125 C 93.550781 0.382812 91.335938 1.46875 88.640625 1.46875 C 86.253906 1.46875 84.4375 0.46875 83.1875 -1.53125 C 81.945312 -3.539062 81.054688 -5.894531 80.515625 -8.59375 C 79.972656 -11.300781 79.675781 -14.0625 79.625 -16.875 C 79.570312 -19.695312 79.546875 -21.914062 79.546875 -23.53125 C 79.546875 -28.40625 79.707031 -33.171875 80.03125 -37.828125 C 80.351562 -42.484375 80.515625 -47.242188 80.515625 -52.109375 C 80.515625 -52.648438 80.515625 -53.625 80.515625 -55.03125 C 80.515625 -56.4375 80.40625 -57.84375 80.1875 -59.25 C 79.976562 -60.65625 79.628906 -61.898438 79.140625 -62.984375 C 78.648438 -64.066406 77.921875 -64.609375 76.953125 -64.609375 C 75.003906 -64.609375 73.429688 -63.609375 72.234375 -61.609375 C 71.046875 -59.609375 70.070312 -57.253906 69.3125 -54.546875 C 68.5625 -51.835938 68.019531 -49.15625 67.6875 -46.5 C 67.363281 -43.851562 67.148438 -41.878906 67.046875 -40.578125 C 66.828125 -39.171875 66.632812 -37.0625 66.46875 -34.25 C 66.3125 -31.4375 66.097656 -28.351562 65.828125 -25 C 65.554688 -21.644531 65.125 -18.207031 64.53125 -14.6875 C 63.9375 -11.175781 63.175781 -7.984375 62.25 -5.109375 C 61.332031 -2.242188 60.171875 0.101562 58.765625 1.9375 C 57.359375 3.78125 55.628906 4.703125 53.578125 4.703125 C 50.972656 4.703125 48.96875 3.566406 47.5625 1.296875 C 46.15625 -0.972656 45.125 -3.625 44.46875 -6.65625 C 43.820312 -9.6875 43.414062 -12.769531 43.25 -15.90625 C 43.09375 -19.039062 43.015625 -21.476562 43.015625 -23.21875 C 43.015625 -25.050781 43.039062 -26.832031 43.09375 -28.5625 C 43.15625 -30.300781 43.1875 -32.085938 43.1875 -33.921875 C 43.1875 -34.679688 43.1875 -35.925781 43.1875 -37.65625 C 43.1875 -39.394531 43.15625 -41.316406 43.09375 -43.421875 C 43.039062 -45.535156 42.929688 -47.726562 42.765625 -50 C 42.609375 -52.269531 42.367188 -54.351562 42.046875 -56.25 C 41.722656 -58.144531 41.234375 -59.6875 40.578125 -60.875 C 39.929688 -62.0625 39.175781 -62.65625 38.3125 -62.65625 C 36.90625 -62.65625 35.601562 -61.765625 34.40625 -59.984375 C 33.21875 -58.203125 32.191406 -56.09375 31.328125 -53.65625 C 30.460938 -51.21875 29.785156 -48.804688 29.296875 -46.421875 C 28.816406 -44.046875 28.578125 -42.316406 28.578125 -41.234375 L 28.578125 -40.265625 C 28.578125 -35.066406 28.898438 -29.976562 29.546875 -25 C 30.191406 -20.019531 30.515625 -14.929688 30.515625 -9.734375 C 30.515625 -6.703125 29.539062 -3.914062 27.59375 -1.375 C 25.644531 1.164062 22.941406 2.4375 19.484375 2.4375 C 16.992188 2.4375 14.9375 1.488281 13.3125 -0.40625 C 11.6875 -2.300781 10.332031 -4.765625 9.25 -7.796875 C 8.164062 -10.828125 7.328125 -14.15625 6.734375 -17.78125 C 6.140625 -21.40625 5.734375 -24.972656 5.515625 -28.484375 C 5.296875 -32.003906 5.160156 -35.195312 5.109375 -38.0625 C 5.054688 -40.9375 5.03125 -43.078125 5.03125 -44.484375 C 5.03125 -46.109375 5.003906 -48.488281 4.953125 -51.625 C 4.898438 -54.757812 4.953125 -58.164062 5.109375 -61.84375 C 5.273438 -65.53125 5.570312 -69.289062 6 -73.125 C 6.4375 -76.96875 7.140625 -80.457031 8.109375 -83.59375 C 9.085938 -86.738281 10.359375 -89.3125 11.921875 -91.3125 C 13.492188 -93.3125 15.523438 -94.3125 18.015625 -94.3125 C 20.828125 -94.3125 23.125 -93.550781 24.90625 -92.03125 C 26.695312 -90.519531 27.59375 -88.253906 27.59375 -85.234375 C 27.59375 -84.578125 27.566406 -83.925781 27.515625 -83.28125 C 27.460938 -82.632812 27.378906 -82.039062 27.265625 -81.5 C 28.460938 -83.226562 29.925781 -84.984375 31.65625 -86.765625 C 33.382812 -88.554688 35.25 -90.179688 37.25 -91.640625 C 39.257812 -93.097656 41.398438 -94.285156 43.671875 -95.203125 C 45.941406 -96.128906 48.210938 -96.59375 50.484375 -96.59375 C 52.648438 -96.59375 54.597656 -95.992188 56.328125 -94.796875 C 58.054688 -93.609375 59.570312 -92.117188 60.875 -90.328125 C 62.175781 -88.546875 63.257812 -86.628906 64.125 -84.578125 C 64.988281 -82.523438 65.582031 -80.578125 65.90625 -78.734375 C 66.988281 -80.679688 68.3125 -82.65625 69.875 -84.65625 C 71.445312 -86.65625 73.15625 -88.410156 75 -89.921875 C 76.84375 -91.441406 78.875 -92.6875 81.09375 -93.65625 C 83.3125 -94.632812 85.609375 -95.125 87.984375 -95.125 C 90.253906 -95.125 92.203125 -94.3125 93.828125 -92.6875 C 95.453125 -91.070312 96.859375 -88.988281 98.046875 -86.4375 C 99.242188 -83.894531 100.164062 -81.023438 100.8125 -77.828125 C 101.457031 -74.640625 101.992188 -71.503906 102.421875 -68.421875 C 102.859375 -65.335938 103.128906 -62.46875 103.234375 -59.8125 C 103.347656 -57.164062 103.40625 -55.085938 103.40625 -53.578125 Z M 103.40625 -53.578125 "/></g></g></g><g fill="#1b2538" fill-opacity="1"><g transform="translate(462.884952, 449.743063)"><g><path d="M 103.40625 -53.578125 C 103.40625 -51.515625 103.40625 -48.722656 103.40625 -45.203125 C 103.40625 -41.691406 103.320312 -37.878906 103.15625 -33.765625 C 103 -29.648438 102.648438 -25.507812 102.109375 -21.34375 C 101.566406 -17.175781 100.726562 -13.414062 99.59375 -10.0625 C 98.457031 -6.707031 97.019531 -3.945312 95.28125 -1.78125 C 93.550781 0.382812 91.335938 1.46875 88.640625 1.46875 C 86.253906 1.46875 84.4375 0.46875 83.1875 -1.53125 C 81.945312 -3.539062 81.054688 -5.894531 80.515625 -8.59375 C 79.972656 -11.300781 79.675781 -14.0625 79.625 -16.875 C 79.570312 -19.695312 79.546875 -21.914062 79.546875 -23.53125 C 79.546875 -28.40625 79.707031 -33.171875 80.03125 -37.828125 C 80.351562 -42.484375 80.515625 -47.242188 80.515625 -52.109375 C 80.515625 -52.648438 80.515625 -53.625 80.515625 -55.03125 C 80.515625 -56.4375 80.40625 -57.84375 80.1875 -59.25 C 79.976562 -60.65625 79.628906 -61.898438 79.140625 -62.984375 C 78.648438 -64.066406 77.921875 -64.609375 76.953125 -64.609375 C 75.003906 -64.609375 73.429688 -63.609375 72.234375 -61.609375 C 71.046875 -59.609375 70.070312 -57.253906 69.3125 -54.546875 C 68.5625 -51.835938 68.019531 -49.15625 67.6875 -46.5 C 67.363281 -43.851562 67.148438 -41.878906 67.046875 -40.578125 C 66.828125 -39.171875 66.632812 -37.0625 66.46875 -34.25 C 66.3125 -31.4375 66.097656 -28.351562 65.828125 -25 C 65.554688 -21.644531 65.125 -18.207031 64.53125 -14.6875 C 63.9375 -11.175781 63.175781 -7.984375 62.25 -5.109375 C 61.332031 -2.242188 60.171875 0.101562 58.765625 1.9375 C 57.359375 3.78125 55.628906 4.703125 53.578125 4.703125 C 50.972656 4.703125 48.96875 3.566406 47.5625 1.296875 C 46.15625 -0.972656 45.125 -3.625 44.46875 -6.65625 C 43.820312 -9.6875 43.414062 -12.769531 43.25 -15.90625 C 43.09375 -19.039062 43.015625 -21.476562 43.015625 -23.21875 C 43.015625 -25.050781 43.039062 -26.832031 43.09375 -28.5625 C 43.15625 -30.300781 43.1875 -32.085938 43.1875 -33.921875 C 43.1875 -34.679688 43.1875 -35.925781 43.1875 -37.65625 C 43.1875 -39.394531 43.15625 -41.316406 43.09375 -43.421875 C 43.039062 -45.535156 42.929688 -47.726562 42.765625 -50 C 42.609375 -52.269531 42.367188 -54.351562 42.046875 -56.25 C 41.722656 -58.144531 41.234375 -59.6875 40.578125 -60.875 C 39.929688 -62.0625 39.175781 -62.65625 38.3125 -62.65625 C 36.90625 -62.65625 35.601562 -61.765625 34.40625 -59.984375 C 33.21875 -58.203125 32.191406 -56.09375 31.328125 -53.65625 C 30.460938 -51.21875 29.785156 -48.804688 29.296875 -46.421875 C 28.816406 -44.046875 28.578125 -42.316406 28.578125 -41.234375 L 28.578125 -40.265625 C 28.578125 -35.066406 28.898438 -29.976562 29.546875 -25 C 30.191406 -20.019531 30.515625 -14.929688 30.515625 -9.734375 C 30.515625 -6.703125 29.539062 -3.914062 27.59375 -1.375 C 25.644531 1.164062 22.941406 2.4375 19.484375 2.4375 C 16.992188 2.4375 14.9375 1.488281 13.3125 -0.40625 C 11.6875 -2.300781 10.332031 -4.765625 9.25 -7.796875 C 8.164062 -10.828125 7.328125 -14.15625 6.734375 -17.78125 C 6.140625 -21.40625 5.734375 -24.972656 5.515625 -28.484375 C 5.296875 -32.003906 5.160156 -35.195312 5.109375 -38.0625 C 5.054688 -40.9375 5.03125 -43.078125 5.03125 -44.484375 C 5.03125 -46.109375 5.003906 -48.488281 4.953125 -51.625 C 4.898438 -54.757812 4.953125 -58.164062 5.109375 -61.84375 C 5.273438 -65.53125 5.570312 -69.289062 6 -73.125 C 6.4375 -76.96875 7.140625 -80.457031 8.109375 -83.59375 C 9.085938 -86.738281 10.359375 -89.3125 11.921875 -91.3125 C 13.492188 -93.3125 15.523438 -94.3125 18.015625 -94.3125 C 20.828125 -94.3125 23.125 -93.550781 24.90625 -92.03125 C 26.695312 -90.519531 27.59375 -88.253906 27.59375 -85.234375 C 27.59375 -84.578125 27.566406 -83.925781 27.515625 -83.28125 C 27.460938 -82.632812 27.378906 -82.039062 27.265625 -81.5 C 28.460938 -83.226562 29.925781 -84.984375 31.65625 -86.765625 C 33.382812 -88.554688 35.25 -90.179688 37.25 -91.640625 C 39.257812 -93.097656 41.398438 -94.285156 43.671875 -95.203125 C 45.941406 -96.128906 48.210938 -96.59375 50.484375 -96.59375 C 52.648438 -96.59375 54.597656 -95.992188 56.328125 -94.796875 C 58.054688 -93.609375 59.570312 -92.117188 60.875 -90.328125 C 62.175781 -88.546875 63.257812 -86.628906 64.125 -84.578125 C 64.988281 -82.523438 65.582031 -80.578125 65.90625 -78.734375 C 66.988281 -80.679688 68.3125 -82.65625 69.875 -84.65625 C 71.445312 -86.65625 73.15625 -88.410156 75 -89.921875 C 76.84375 -91.441406 78.875 -92.6875 81.09375 -93.65625 C 83.3125 -94.632812 85.609375 -95.125 87.984375 -95.125 C 90.253906 -95.125 92.203125 -94.3125 93.828125 -92.6875 C 95.453125 -91.070312 96.859375 -88.988281 98.046875 -86.4375 C 99.242188 -83.894531 100.164062 -81.023438 100.8125 -77.828125 C 101.457031 -74.640625 101.992188 -71.503906 102.421875 -68.421875 C 102.859375 -65.335938 103.128906 -62.46875 103.234375 -59.8125 C 103.347656 -57.164062 103.40625 -55.085938 103.40625 -53.578125 Z M 103.40625 -53.578125 "/></g></g></g><g fill="#1b2538" fill-opacity="1"><g transform="translate(572.128324, 449.743063)"><g><path d="M 75.96875 -46.421875 C 75.96875 -40.472656 75.375 -34.578125 74.1875 -28.734375 C 73 -22.890625 71 -17.664062 68.1875 -13.0625 C 65.375 -8.46875 61.613281 -4.765625 56.90625 -1.953125 C 52.195312 0.859375 46.320312 2.265625 39.28125 2.265625 C 32.351562 2.265625 26.5625 0.890625 21.90625 -1.859375 C 17.257812 -4.617188 13.554688 -8.269531 10.796875 -12.8125 C 8.035156 -17.363281 6.085938 -22.503906 4.953125 -28.234375 C 3.816406 -33.972656 3.25 -39.820312 3.25 -45.78125 C 3.25 -52.269531 4.003906 -58.707031 5.515625 -65.09375 C 5.835938 -66.820312 6.457031 -69.226562 7.375 -72.3125 C 8.300781 -75.40625 9.492188 -78.4375 10.953125 -81.40625 C 12.421875 -84.382812 14.097656 -86.957031 15.984375 -89.125 C 17.878906 -91.289062 19.960938 -92.375 22.234375 -92.375 C 24.398438 -92.375 26.132812 -91.773438 27.4375 -90.578125 C 28.738281 -89.390625 29.765625 -87.898438 30.515625 -86.109375 C 31.273438 -84.328125 31.765625 -82.4375 31.984375 -80.4375 C 32.203125 -78.4375 32.3125 -76.625 32.3125 -75 C 32.3125 -72.507812 32.117188 -70.070312 31.734375 -67.6875 C 31.359375 -65.3125 30.953125 -62.929688 30.515625 -60.546875 C 30.085938 -57.304688 29.679688 -54.0625 29.296875 -50.8125 C 28.921875 -47.5625 28.734375 -44.316406 28.734375 -41.078125 C 28.734375 -39.453125 28.8125 -37.632812 28.96875 -35.625 C 29.132812 -33.625 29.539062 -31.703125 30.1875 -29.859375 C 30.84375 -28.023438 31.765625 -26.484375 32.953125 -25.234375 C 34.140625 -23.992188 35.816406 -23.375 37.984375 -23.375 C 40.796875 -23.375 43.039062 -24.128906 44.71875 -25.640625 C 46.394531 -27.160156 47.640625 -29.054688 48.453125 -31.328125 C 49.265625 -33.597656 49.78125 -36.03125 50 -38.625 C 50.21875 -41.226562 50.328125 -43.613281 50.328125 -45.78125 C 50.328125 -50.539062 50 -55.21875 49.34375 -59.8125 C 48.695312 -64.414062 48.101562 -69.097656 47.5625 -73.859375 C 47.457031 -74.398438 47.40625 -75.160156 47.40625 -76.140625 C 47.40625 -77.765625 47.675781 -79.382812 48.21875 -81 C 48.757812 -82.625 49.515625 -84.085938 50.484375 -85.390625 C 51.460938 -86.691406 52.65625 -87.742188 54.0625 -88.546875 C 55.46875 -89.359375 57.035156 -89.765625 58.765625 -89.765625 C 61.148438 -89.765625 63.257812 -88.925781 65.09375 -87.25 C 66.9375 -85.570312 68.476562 -83.40625 69.71875 -80.75 C 70.96875 -78.101562 72 -75.128906 72.8125 -71.828125 C 73.625 -68.535156 74.269531 -65.289062 74.75 -62.09375 C 75.238281 -58.90625 75.5625 -55.898438 75.71875 -53.078125 C 75.882812 -50.265625 75.96875 -48.046875 75.96875 -46.421875 Z M 75.96875 -46.421875 "/></g></g></g><g fill="#1b2538" fill-opacity="1"><g transform="translate(653.127496, 449.743063)"><g><path d="M 50.96875 4.546875 C 49.132812 4.546875 47.675781 3.707031 46.59375 2.03125 C 45.507812 0.351562 44.695312 -1.566406 44.15625 -3.734375 C 43.613281 -5.898438 43.257812 -8.09375 43.09375 -10.3125 C 42.9375 -12.53125 42.859375 -14.234375 42.859375 -15.421875 C 42.859375 -18.671875 43.046875 -21.914062 43.421875 -25.15625 C 43.804688 -28.40625 44.238281 -31.648438 44.71875 -34.890625 C 45.207031 -38.140625 45.640625 -41.390625 46.015625 -44.640625 C 46.398438 -47.890625 46.59375 -51.140625 46.59375 -54.390625 C 46.59375 -55.679688 46.535156 -57.082031 46.421875 -58.59375 C 46.316406 -60.113281 46.070312 -61.550781 45.6875 -62.90625 C 45.3125 -64.257812 44.691406 -65.367188 43.828125 -66.234375 C 42.960938 -67.097656 41.828125 -67.53125 40.421875 -67.53125 C 39.453125 -67.53125 38.367188 -66.742188 37.171875 -65.171875 C 35.984375 -63.609375 34.875 -61.820312 33.84375 -59.8125 C 32.820312 -57.8125 31.957031 -55.8125 31.25 -53.8125 C 30.539062 -51.8125 30.1875 -50.320312 30.1875 -49.34375 C 30.1875 -46.96875 30.210938 -44.5625 30.265625 -42.125 C 30.328125 -39.6875 30.359375 -37.222656 30.359375 -34.734375 L 30.359375 -25.328125 C 30.242188 -23.378906 30.078125 -21.375 29.859375 -19.3125 C 29.648438 -17.257812 29.328125 -15.257812 28.890625 -13.3125 C 28.566406 -11.363281 28.082031 -9.492188 27.4375 -7.703125 C 26.789062 -5.921875 25.953125 -4.351562 24.921875 -3 C 23.890625 -1.644531 22.671875 -0.535156 21.265625 0.328125 C 19.859375 1.191406 18.179688 1.625 16.234375 1.625 C 14.066406 1.625 12.28125 0.921875 10.875 -0.484375 C 9.46875 -1.890625 8.332031 -3.703125 7.46875 -5.921875 C 6.601562 -8.140625 5.976562 -10.628906 5.59375 -13.390625 C 5.21875 -16.148438 4.945312 -18.851562 4.78125 -21.5 C 4.625 -24.15625 4.570312 -26.59375 4.625 -28.8125 C 4.675781 -31.03125 4.703125 -32.789062 4.703125 -34.09375 L 4.703125 -41.71875 C 4.703125 -45.832031 4.617188 -49.890625 4.453125 -53.890625 C 4.296875 -57.898438 4.21875 -61.90625 4.21875 -65.90625 C 4.21875 -68.070312 4.242188 -70.832031 4.296875 -74.1875 C 4.359375 -77.539062 4.765625 -80.8125 5.515625 -84 C 6.273438 -87.195312 7.519531 -89.929688 9.25 -92.203125 C 10.976562 -94.484375 13.523438 -95.625 16.890625 -95.625 C 18.398438 -95.625 19.75 -95.132812 20.9375 -94.15625 C 22.132812 -93.175781 23.191406 -91.984375 24.109375 -90.578125 C 25.023438 -89.171875 25.78125 -87.65625 26.375 -86.03125 C 26.96875 -84.414062 27.429688 -83.007812 27.765625 -81.8125 C 28.847656 -83.332031 30.117188 -84.796875 31.578125 -86.203125 C 33.035156 -87.609375 34.679688 -88.851562 36.515625 -89.9375 C 38.359375 -91.019531 40.414062 -91.882812 42.6875 -92.53125 C 44.96875 -93.175781 47.566406 -93.5 50.484375 -93.5 C 56.003906 -93.5 60.304688 -92.171875 63.390625 -89.515625 C 66.472656 -86.867188 68.742188 -83.570312 70.203125 -79.625 C 71.671875 -75.675781 72.566406 -71.425781 72.890625 -66.875 C 73.210938 -62.332031 73.375 -58.222656 73.375 -54.546875 C 73.375 -52.703125 73.210938 -49.96875 72.890625 -46.34375 C 72.566406 -42.71875 72.050781 -38.710938 71.34375 -34.328125 C 70.644531 -29.953125 69.695312 -25.460938 68.5 -20.859375 C 67.3125 -16.265625 65.90625 -12.070312 64.28125 -8.28125 C 62.65625 -4.488281 60.734375 -1.40625 58.515625 0.96875 C 56.296875 3.351562 53.78125 4.546875 50.96875 4.546875 Z M 50.96875 4.546875 "/></g></g></g><g fill="#1b2538" fill-opacity="1"><g transform="translate(730.717885, 449.743063)"><g><path d="M 31.65625 -113.3125 C 31.65625 -111.800781 31.25 -110.445312 30.4375 -109.25 C 29.625 -108.0625 28.566406 -107.003906 27.265625 -106.078125 C 25.972656 -105.160156 24.566406 -104.457031 23.046875 -103.96875 C 21.535156 -103.488281 20.128906 -103.25 18.828125 -103.25 C 16.660156 -103.25 14.765625 -103.789062 13.140625 -104.875 C 11.523438 -105.957031 10.71875 -107.632812 10.71875 -109.90625 C 10.71875 -111.53125 11.125 -112.960938 11.9375 -114.203125 C 12.75 -115.453125 13.75 -116.476562 14.9375 -117.28125 C 16.125 -118.09375 17.472656 -118.71875 18.984375 -119.15625 C 20.503906 -119.59375 21.96875 -119.8125 23.375 -119.8125 C 25.4375 -119.8125 27.332031 -119.320312 29.0625 -118.34375 C 30.789062 -117.375 31.65625 -115.695312 31.65625 -113.3125 Z M 32.953125 -58.109375 C 32.953125 -56.597656 32.953125 -55.003906 32.953125 -53.328125 C 32.953125 -51.648438 32.898438 -50.054688 32.796875 -48.546875 C 32.679688 -46.703125 32.625 -44.238281 32.625 -41.15625 C 32.625 -38.070312 32.515625 -34.742188 32.296875 -31.171875 C 32.085938 -27.597656 31.738281 -23.96875 31.25 -20.28125 C 30.757812 -16.601562 29.972656 -13.25 28.890625 -10.21875 C 27.804688 -7.195312 26.375 -4.738281 24.59375 -2.84375 C 22.8125 -0.945312 20.566406 0.0507812 17.859375 0.15625 C 15.796875 0.269531 14.0625 -0.535156 12.65625 -2.265625 C 11.25 -4.003906 10.085938 -6.253906 9.171875 -9.015625 C 8.253906 -11.773438 7.578125 -14.859375 7.140625 -18.265625 C 6.710938 -21.671875 6.390625 -24.96875 6.171875 -28.15625 C 5.953125 -31.351562 5.84375 -34.304688 5.84375 -37.015625 C 5.84375 -39.722656 5.84375 -41.722656 5.84375 -43.015625 C 5.84375 -44.742188 5.84375 -47.203125 5.84375 -50.390625 C 5.84375 -53.585938 5.953125 -57.023438 6.171875 -60.703125 C 6.390625 -64.390625 6.796875 -68.125 7.390625 -71.90625 C 7.984375 -75.695312 8.847656 -79.160156 9.984375 -82.296875 C 11.117188 -85.441406 12.601562 -87.988281 14.4375 -89.9375 C 16.28125 -91.882812 18.609375 -92.859375 21.421875 -92.859375 C 24.347656 -92.859375 26.566406 -91.394531 28.078125 -88.46875 C 29.597656 -85.550781 30.734375 -82.144531 31.484375 -78.25 C 32.242188 -74.351562 32.675781 -70.484375 32.78125 -66.640625 C 32.894531 -62.796875 32.953125 -59.953125 32.953125 -58.109375 Z M 32.953125 -58.109375 "/></g></g></g><g fill="#1b2538" fill-opacity="1"><g transform="translate(770.324694, 449.743063)"><g><path d="M 42.6875 5.84375 C 35.007812 5.84375 29.03125 4.84375 24.75 2.84375 C 20.476562 0.84375 17.285156 -1.992188 15.171875 -5.671875 C 13.066406 -9.359375 11.796875 -13.796875 11.359375 -18.984375 C 10.929688 -24.179688 10.71875 -29.972656 10.71875 -36.359375 C 10.71875 -41.453125 10.878906 -46.566406 11.203125 -51.703125 C 11.523438 -56.847656 12.007812 -62.34375 12.65625 -68.1875 C 11.144531 -68.1875 9.957031 -68.15625 9.09375 -68.09375 C 8.226562 -68.039062 7.523438 -68.015625 6.984375 -68.015625 C 3.515625 -68.015625 0.507812 -68.769531 -2.03125 -70.28125 C -4.570312 -71.800781 -5.84375 -74.128906 -5.84375 -77.265625 C -5.84375 -79.210938 -5.113281 -80.941406 -3.65625 -82.453125 C -2.195312 -83.972656 -0.332031 -85.273438 1.9375 -86.359375 C 4.21875 -87.441406 6.679688 -88.304688 9.328125 -88.953125 C 11.984375 -89.609375 14.503906 -90.046875 16.890625 -90.265625 C 16.890625 -93.296875 17.101562 -96.648438 17.53125 -100.328125 C 17.96875 -104.003906 18.753906 -107.4375 19.890625 -110.625 C 21.023438 -113.820312 22.566406 -116.503906 24.515625 -118.671875 C 26.460938 -120.835938 28.953125 -121.921875 31.984375 -121.921875 C 33.710938 -121.921875 35.253906 -121.40625 36.609375 -120.375 C 37.960938 -119.34375 39.070312 -118.039062 39.9375 -116.46875 C 40.800781 -114.90625 41.445312 -113.148438 41.875 -111.203125 C 42.3125 -109.253906 42.53125 -107.359375 42.53125 -105.515625 C 42.53125 -103.347656 42.367188 -101.128906 42.046875 -98.859375 C 41.722656 -96.585938 41.128906 -93.773438 40.265625 -90.421875 C 42.097656 -90.640625 43.335938 -90.773438 43.984375 -90.828125 C 44.640625 -90.878906 45.238281 -90.90625 45.78125 -90.90625 C 47.625 -90.90625 49.546875 -90.742188 51.546875 -90.421875 C 53.546875 -90.097656 55.382812 -89.554688 57.0625 -88.796875 C 58.738281 -88.035156 60.117188 -87.03125 61.203125 -85.78125 C 62.285156 -84.539062 62.828125 -83.054688 62.828125 -81.328125 C 62.828125 -79.378906 62.039062 -77.644531 60.46875 -76.125 C 58.894531 -74.613281 56.914062 -73.316406 54.53125 -72.234375 C 52.15625 -71.148438 49.613281 -70.3125 46.90625 -69.71875 C 44.207031 -69.125 41.664062 -68.71875 39.28125 -68.5 C 38.632812 -64.0625 38.175781 -59.976562 37.90625 -56.25 C 37.632812 -52.519531 37.335938 -48.757812 37.015625 -44.96875 C 36.796875 -43.125 36.601562 -41.253906 36.4375 -39.359375 C 36.28125 -37.472656 36.203125 -35.554688 36.203125 -33.609375 C 36.203125 -32.203125 36.253906 -30.550781 36.359375 -28.65625 C 36.472656 -26.757812 36.851562 -24.941406 37.5 -23.203125 C 38.144531 -21.472656 39.171875 -19.988281 40.578125 -18.75 C 41.984375 -17.507812 43.929688 -16.890625 46.421875 -16.890625 C 47.941406 -16.890625 49.515625 -17.019531 51.140625 -17.28125 C 52.765625 -17.550781 54.382812 -17.6875 56 -17.6875 C 58.820312 -17.6875 60.851562 -16.710938 62.09375 -14.765625 C 63.34375 -12.816406 63.96875 -10.332031 63.96875 -7.3125 C 63.96875 -5.03125 63.289062 -3.050781 61.9375 -1.375 C 60.582031 0.300781 58.875 1.648438 56.8125 2.671875 C 54.757812 3.703125 52.460938 4.488281 49.921875 5.03125 C 47.378906 5.570312 44.96875 5.84375 42.6875 5.84375 Z M 42.6875 5.84375 "/></g></g></g><g fill="#1b2538" fill-opacity="1"><g transform="translate(832.656722, 449.743063)"><g><path d="M 40.09375 47.234375 C 37.5 47.234375 34.550781 46.828125 31.25 46.015625 C 27.945312 45.210938 24.832031 44.050781 21.90625 42.53125 C 18.988281 41.019531 16.53125 39.179688 14.53125 37.015625 C 12.53125 34.847656 11.53125 32.359375 11.53125 29.546875 C 11.53125 28.460938 11.800781 27.378906 12.34375 26.296875 C 12.882812 25.210938 13.613281 24.265625 14.53125 23.453125 C 15.445312 22.640625 16.445312 21.988281 17.53125 21.5 C 18.613281 21.019531 19.75 20.78125 20.9375 20.78125 C 22.238281 20.78125 23.507812 20.96875 24.75 21.34375 C 26 21.726562 27.273438 22.191406 28.578125 22.734375 C 29.984375 23.265625 31.359375 23.75 32.703125 24.1875 C 34.054688 24.625 35.492188 24.84375 37.015625 24.84375 C 39.722656 24.84375 42.078125 23.921875 44.078125 22.078125 C 46.078125 20.234375 47.78125 17.820312 49.1875 14.84375 C 50.59375 11.875 51.726562 8.578125 52.59375 4.953125 C 53.457031 1.328125 54.132812 -2.269531 54.625 -5.84375 C 55.113281 -9.414062 55.460938 -12.769531 55.671875 -15.90625 C 55.890625 -19.039062 56.054688 -21.582031 56.171875 -23.53125 C 52.378906 -17.800781 48.613281 -13.394531 44.875 -10.3125 C 41.144531 -7.226562 36.578125 -5.6875 31.171875 -5.6875 C 27.054688 -5.6875 23.457031 -6.550781 20.375 -8.28125 C 17.289062 -10.007812 14.664062 -12.28125 12.5 -15.09375 C 10.332031 -17.90625 8.546875 -21.125 7.140625 -24.75 C 5.734375 -28.375 4.675781 -32.132812 3.96875 -36.03125 C 3.269531 -39.9375 2.8125 -43.753906 2.59375 -47.484375 C 2.375 -51.210938 2.375 -54.648438 2.59375 -57.796875 C 2.707031 -60.171875 3.003906 -63.28125 3.484375 -67.125 C 3.972656 -70.96875 4.757812 -74.726562 5.84375 -78.40625 C 6.925781 -82.082031 8.441406 -85.191406 10.390625 -87.734375 C 12.335938 -90.285156 14.878906 -91.453125 18.015625 -91.234375 C 20.078125 -91.128906 21.753906 -90.238281 23.046875 -88.5625 C 24.347656 -86.882812 25.40625 -84.800781 26.21875 -82.3125 C 27.03125 -79.820312 27.625 -77.085938 28 -74.109375 C 28.382812 -71.128906 28.628906 -68.175781 28.734375 -65.25 C 28.835938 -62.332031 28.863281 -59.65625 28.8125 -57.21875 C 28.757812 -54.789062 28.734375 -52.925781 28.734375 -51.625 C 28.734375 -49.78125 28.785156 -47.9375 28.890625 -46.09375 C 29.003906 -44.257812 29.382812 -42.613281 30.03125 -41.15625 C 30.675781 -39.695312 31.675781 -38.53125 33.03125 -37.65625 C 34.382812 -36.789062 36.304688 -36.359375 38.796875 -36.359375 C 41.609375 -36.359375 43.851562 -37.0625 45.53125 -38.46875 C 47.207031 -39.875 48.453125 -41.632812 49.265625 -43.75 C 50.078125 -45.863281 50.59375 -48.132812 50.8125 -50.5625 C 51.03125 -53 51.140625 -55.300781 51.140625 -57.46875 C 51.140625 -58.976562 51.140625 -60.816406 51.140625 -62.984375 C 51.140625 -65.148438 51.164062 -67.421875 51.21875 -69.796875 C 51.269531 -72.179688 51.484375 -74.535156 51.859375 -76.859375 C 52.242188 -79.191406 52.84375 -81.304688 53.65625 -83.203125 C 54.46875 -85.097656 55.546875 -86.640625 56.890625 -87.828125 C 58.242188 -89.015625 60.003906 -89.609375 62.171875 -89.609375 C 64.878906 -89.609375 67.207031 -88.550781 69.15625 -86.4375 C 71.101562 -84.332031 72.753906 -81.570312 74.109375 -78.15625 C 75.460938 -74.75 76.546875 -70.988281 77.359375 -66.875 C 78.171875 -62.769531 78.789062 -58.6875 79.21875 -54.625 C 79.65625 -50.570312 79.953125 -46.835938 80.109375 -43.421875 C 80.273438 -40.015625 80.359375 -37.335938 80.359375 -35.390625 C 80.359375 -30.847656 80.195312 -25.679688 79.875 -19.890625 C 79.550781 -14.097656 78.925781 -8.144531 78 -2.03125 C 77.082031 4.082031 75.703125 10.085938 73.859375 15.984375 C 72.023438 21.890625 69.617188 27.164062 66.640625 31.8125 C 63.660156 36.46875 60.003906 40.203125 55.671875 43.015625 C 51.347656 45.828125 46.15625 47.234375 40.09375 47.234375 Z M 40.09375 47.234375 "/></g></g></g><g fill="#1b2538" fill-opacity="1"><g transform="translate(918.687907, 449.743063)"><g/></g></g><g fill="#1b2538" fill-opacity="1"><g transform="translate(957.807747, 449.743063)"><g><path d="M 76.625 -95.9375 C 76.625 -88.46875 74.78125 -81.675781 71.09375 -75.5625 C 67.414062 -69.445312 62.492188 -64.335938 56.328125 -60.234375 C 59.578125 -59.578125 62.390625 -58.460938 64.765625 -56.890625 C 67.148438 -55.328125 69.125 -53.410156 70.6875 -51.140625 C 72.257812 -48.867188 73.453125 -46.296875 74.265625 -43.421875 C 75.078125 -40.554688 75.484375 -37.554688 75.484375 -34.421875 C 75.484375 -28.242188 74.050781 -22.851562 71.1875 -18.25 C 68.320312 -13.65625 64.613281 -9.867188 60.0625 -6.890625 C 55.519531 -3.921875 50.460938 -1.703125 44.890625 -0.234375 C 39.316406 1.222656 33.769531 1.953125 28.25 1.953125 C 25.21875 1.953125 22.1875 1.734375 19.15625 1.296875 C 16.125 0.867188 13.253906 0.113281 10.546875 -0.96875 C 9.578125 -1.300781 8.765625 -2.628906 8.109375 -4.953125 C 7.460938 -7.273438 6.945312 -10.113281 6.5625 -13.46875 C 6.1875 -16.820312 5.890625 -20.445312 5.671875 -24.34375 C 5.460938 -28.238281 5.300781 -31.972656 5.1875 -35.546875 C 5.082031 -39.117188 5.03125 -42.257812 5.03125 -44.96875 C 5.03125 -47.675781 5.03125 -49.570312 5.03125 -50.65625 C 5.03125 -54.4375 5.03125 -58.25 5.03125 -62.09375 C 5.03125 -65.9375 5.140625 -69.753906 5.359375 -73.546875 C 5.359375 -74.515625 5.382812 -76.023438 5.4375 -78.078125 C 5.488281 -80.140625 5.539062 -82.441406 5.59375 -84.984375 C 5.65625 -87.523438 5.765625 -90.203125 5.921875 -93.015625 C 6.085938 -95.828125 6.304688 -98.453125 6.578125 -100.890625 C 6.847656 -103.328125 7.222656 -105.410156 7.703125 -107.140625 C 8.191406 -108.867188 8.765625 -109.953125 9.421875 -110.390625 C 11.910156 -112.015625 14.664062 -113.554688 17.6875 -115.015625 C 20.71875 -116.472656 23.859375 -117.742188 27.109375 -118.828125 C 30.359375 -119.910156 33.601562 -120.773438 36.84375 -121.421875 C 40.09375 -122.078125 43.179688 -122.40625 46.109375 -122.40625 C 50.109375 -122.40625 53.972656 -121.835938 57.703125 -120.703125 C 61.441406 -119.566406 64.691406 -117.859375 67.453125 -115.578125 C 70.210938 -113.304688 72.429688 -110.519531 74.109375 -107.21875 C 75.785156 -103.914062 76.625 -100.15625 76.625 -95.9375 Z M 49.671875 -87.34375 C 49.671875 -89.175781 49.101562 -90.523438 47.96875 -91.390625 C 46.832031 -92.253906 45.34375 -92.6875 43.5 -92.6875 C 41.988281 -92.6875 40.394531 -92.363281 38.71875 -91.71875 C 37.039062 -91.070312 35.609375 -90.207031 34.421875 -89.125 C 34.085938 -88.800781 33.785156 -87.878906 33.515625 -86.359375 C 33.242188 -84.847656 33.023438 -83.144531 32.859375 -81.25 C 32.703125 -79.351562 32.597656 -77.566406 32.546875 -75.890625 C 32.492188 -74.210938 32.46875 -73.101562 32.46875 -72.5625 C 32.46875 -72.34375 32.46875 -71.988281 32.46875 -71.5 C 32.46875 -71.019531 32.492188 -70.507812 32.546875 -69.96875 C 32.597656 -69.425781 32.675781 -68.9375 32.78125 -68.5 C 32.894531 -68.070312 33.0625 -67.859375 33.28125 -67.859375 C 35.125 -67.859375 37.019531 -68.535156 38.96875 -69.890625 C 40.914062 -71.242188 42.671875 -72.921875 44.234375 -74.921875 C 45.804688 -76.921875 47.101562 -79.054688 48.125 -81.328125 C 49.15625 -83.597656 49.671875 -85.601562 49.671875 -87.34375 Z M 49.03125 -40.421875 C 49.03125 -42.265625 48.378906 -43.5625 47.078125 -44.3125 C 45.773438 -45.070312 44.3125 -45.453125 42.6875 -45.453125 C 41.175781 -45.453125 39.582031 -45.097656 37.90625 -44.390625 C 36.226562 -43.691406 34.847656 -42.859375 33.765625 -41.890625 C 33.441406 -41.671875 33.195312 -41.128906 33.03125 -40.265625 C 32.875 -39.398438 32.765625 -38.453125 32.703125 -37.421875 C 32.648438 -36.390625 32.597656 -35.410156 32.546875 -34.484375 C 32.492188 -33.566406 32.46875 -32.945312 32.46875 -32.625 C 32.46875 -32.414062 32.46875 -31.984375 32.46875 -31.328125 C 32.46875 -30.679688 32.492188 -30.003906 32.546875 -29.296875 C 32.597656 -28.597656 32.703125 -27.953125 32.859375 -27.359375 C 33.023438 -26.765625 33.21875 -26.46875 33.4375 -26.46875 C 34.957031 -26.46875 36.632812 -26.898438 38.46875 -27.765625 C 40.3125 -28.628906 42.015625 -29.707031 43.578125 -31 C 45.148438 -32.300781 46.453125 -33.789062 47.484375 -35.46875 C 48.515625 -37.144531 49.03125 -38.796875 49.03125 -40.421875 Z M 49.03125 -40.421875 "/></g></g></g><g fill="#1b2538" fill-opacity="1"><g transform="translate(1036.859043, 449.743063)"><g><path d="M 35.234375 -98.375 C 35.234375 -92.53125 34.988281 -86.660156 34.5 -80.765625 C 34.007812 -74.867188 33.765625 -68.941406 33.765625 -62.984375 C 33.765625 -55.304688 34.007812 -47.625 34.5 -39.9375 C 34.988281 -32.25 35.234375 -24.507812 35.234375 -16.71875 C 35.234375 -14.769531 35.125 -12.578125 34.90625 -10.140625 C 34.6875 -7.710938 34.171875 -5.46875 33.359375 -3.40625 C 32.546875 -1.351562 31.328125 0.375 29.703125 1.78125 C 28.078125 3.1875 25.914062 3.890625 23.21875 3.890625 C 20.613281 3.890625 18.363281 2.617188 16.46875 0.078125 C 14.582031 -2.460938 13.015625 -5.707031 11.765625 -9.65625 C 10.523438 -13.601562 9.5 -18.007812 8.6875 -22.875 C 7.875 -27.75 7.273438 -32.488281 6.890625 -37.09375 C 6.515625 -41.695312 6.242188 -45.914062 6.078125 -49.75 C 5.921875 -53.59375 5.84375 -56.4375 5.84375 -58.28125 C 5.84375 -60.332031 5.921875 -63.304688 6.078125 -67.203125 C 6.242188 -71.097656 6.597656 -75.316406 7.140625 -79.859375 C 7.679688 -84.410156 8.410156 -89.039062 9.328125 -93.75 C 10.253906 -98.457031 11.472656 -102.734375 12.984375 -106.578125 C 14.503906 -110.421875 16.316406 -113.554688 18.421875 -115.984375 C 20.535156 -118.421875 23.050781 -119.640625 25.96875 -119.640625 C 28.351562 -119.640625 30.164062 -118.851562 31.40625 -117.28125 C 32.65625 -115.71875 33.550781 -113.828125 34.09375 -111.609375 C 34.632812 -109.390625 34.957031 -107.0625 35.0625 -104.625 C 35.175781 -102.1875 35.234375 -100.101562 35.234375 -98.375 Z M 35.234375 -98.375 "/></g></g></g><g fill="#1b2538" fill-opacity="1"><g transform="translate(1079.54999, 449.743063)"><g><path d="M 35.71875 4.703125 C 30.195312 4.703125 25.378906 3.238281 21.265625 0.3125 C 17.148438 -2.601562 13.6875 -6.332031 10.875 -10.875 C 8.0625 -15.414062 5.953125 -20.472656 4.546875 -26.046875 C 3.140625 -31.628906 2.4375 -37.125 2.4375 -42.53125 C 2.4375 -48.269531 3.140625 -54.195312 4.546875 -60.3125 C 5.953125 -66.425781 8.113281 -72 11.03125 -77.03125 C 13.957031 -82.0625 17.691406 -86.171875 22.234375 -89.359375 C 26.785156 -92.554688 32.195312 -94.15625 38.46875 -94.15625 C 44.53125 -94.15625 49.695312 -92.503906 53.96875 -89.203125 C 58.25 -85.898438 61.6875 -81.785156 64.28125 -76.859375 C 66.882812 -71.941406 68.722656 -66.5625 69.796875 -60.71875 C 70.878906 -54.875 71.257812 -49.351562 70.9375 -44.15625 C 70.613281 -38.414062 69.722656 -32.625 68.265625 -26.78125 C 66.804688 -20.9375 64.664062 -15.6875 61.84375 -11.03125 C 59.03125 -6.382812 55.457031 -2.601562 51.125 0.3125 C 46.800781 3.238281 41.664062 4.703125 35.71875 4.703125 Z M 37.34375 -68.671875 C 35.71875 -68.671875 34.28125 -67.800781 33.03125 -66.0625 C 31.789062 -64.332031 30.765625 -62.222656 29.953125 -59.734375 C 29.140625 -57.242188 28.515625 -54.617188 28.078125 -51.859375 C 27.648438 -49.109375 27.4375 -46.703125 27.4375 -44.640625 C 27.4375 -42.046875 27.675781 -39.234375 28.15625 -36.203125 C 28.644531 -33.171875 29.320312 -30.382812 30.1875 -27.84375 C 31.0625 -25.300781 32.117188 -23.191406 33.359375 -21.515625 C 34.609375 -19.835938 36.039062 -19 37.65625 -19 C 39.394531 -19 40.882812 -19.804688 42.125 -21.421875 C 43.375 -23.046875 44.375 -25.101562 45.125 -27.59375 C 45.882812 -30.082031 46.425781 -32.816406 46.75 -35.796875 C 47.070312 -38.773438 47.234375 -41.5625 47.234375 -44.15625 C 47.234375 -46.539062 47.015625 -49.164062 46.578125 -52.03125 C 46.148438 -54.894531 45.53125 -57.570312 44.71875 -60.0625 C 43.90625 -62.550781 42.875 -64.609375 41.625 -66.234375 C 40.382812 -67.859375 38.957031 -68.671875 37.34375 -68.671875 Z M 37.34375 -68.671875 "/></g></g></g><g fill="#1b2538" fill-opacity="1"><g transform="translate(1153.893919, 449.743063)"><g><path d="M 78.40625 -55.359375 C 78.40625 -49.835938 78.320312 -44.316406 78.15625 -38.796875 C 78 -33.273438 77.703125 -27.753906 77.265625 -22.234375 C 76.941406 -17.472656 76.507812 -12.382812 75.96875 -6.96875 C 75.425781 -1.5625 74.5625 3.816406 73.375 9.171875 C 72.1875 14.523438 70.617188 19.664062 68.671875 24.59375 C 66.722656 29.519531 64.148438 33.875 60.953125 37.65625 C 57.765625 41.445312 53.894531 44.476562 49.34375 46.75 C 44.800781 49.019531 39.390625 50.15625 33.109375 50.15625 C 30.191406 50.15625 26.921875 49.695312 23.296875 48.78125 C 19.671875 47.863281 16.257812 46.535156 13.0625 44.796875 C 9.875 43.066406 7.171875 40.929688 4.953125 38.390625 C 2.734375 35.847656 1.625 32.898438 1.625 29.546875 C 1.625 27.054688 2.515625 24.753906 4.296875 22.640625 C 6.085938 20.535156 8.390625 19.484375 11.203125 19.484375 C 12.929688 19.484375 14.578125 19.78125 16.140625 20.375 C 17.710938 20.96875 19.285156 21.640625 20.859375 22.390625 C 22.429688 23.148438 23.945312 23.828125 25.40625 24.421875 C 26.863281 25.023438 28.351562 25.328125 29.875 25.328125 C 33.875 25.328125 37.226562 24.320312 39.9375 22.3125 C 42.644531 20.3125 44.804688 17.769531 46.421875 14.6875 C 48.046875 11.601562 49.265625 8.25 50.078125 4.625 C 50.890625 1 51.457031 -2.4375 51.78125 -5.6875 C 49.625 -3.195312 47.109375 -1.488281 44.234375 -0.5625 C 41.367188 0.351562 38.367188 0.8125 35.234375 0.8125 C 29.492188 0.8125 24.617188 -0.1875 20.609375 -2.1875 C 16.609375 -4.1875 13.363281 -6.945312 10.875 -10.46875 C 8.382812 -13.988281 6.546875 -18.070312 5.359375 -22.71875 C 4.171875 -27.375 3.578125 -32.410156 3.578125 -37.828125 C 3.578125 -41.179688 3.925781 -44.96875 4.625 -49.1875 C 5.332031 -53.40625 6.390625 -57.675781 7.796875 -62 C 9.203125 -66.332031 10.957031 -70.554688 13.0625 -74.671875 C 15.175781 -78.785156 17.640625 -82.410156 20.453125 -85.546875 C 23.265625 -88.691406 26.429688 -91.238281 29.953125 -93.1875 C 33.472656 -95.132812 37.34375 -96.109375 41.5625 -96.109375 C 45.675781 -96.109375 49.328125 -94.914062 52.515625 -92.53125 C 55.710938 -90.15625 57.578125 -86.800781 58.109375 -82.46875 C 59.304688 -84.738281 60.878906 -86.984375 62.828125 -89.203125 C 64.773438 -91.421875 67.15625 -92.53125 69.96875 -92.53125 C 71.476562 -92.53125 72.75 -91.769531 73.78125 -90.25 C 74.8125 -88.738281 75.625 -86.765625 76.21875 -84.328125 C 76.8125 -81.898438 77.269531 -79.25 77.59375 -76.375 C 77.914062 -73.507812 78.128906 -70.695312 78.234375 -67.9375 C 78.347656 -65.175781 78.40625 -62.660156 78.40625 -60.390625 C 78.40625 -58.117188 78.40625 -56.441406 78.40625 -55.359375 Z M 53.734375 -44.8125 C 53.734375 -46.425781 53.488281 -48.53125 53 -51.125 C 52.507812 -53.726562 51.804688 -56.21875 50.890625 -58.59375 C 49.972656 -60.976562 48.8125 -63.035156 47.40625 -64.765625 C 46 -66.503906 44.320312 -67.375 42.375 -67.375 C 39.882812 -67.375 37.691406 -66.503906 35.796875 -64.765625 C 33.898438 -63.035156 32.300781 -60.953125 31 -58.515625 C 29.707031 -56.085938 28.707031 -53.492188 28 -50.734375 C 27.300781 -47.972656 26.953125 -45.617188 26.953125 -43.671875 C 26.953125 -42.265625 27.054688 -40.367188 27.265625 -37.984375 C 27.484375 -35.609375 27.941406 -33.28125 28.640625 -31 C 29.347656 -28.726562 30.296875 -26.78125 31.484375 -25.15625 C 32.679688 -23.539062 34.253906 -22.734375 36.203125 -22.734375 C 39.117188 -22.734375 41.660156 -23.4375 43.828125 -24.84375 C 45.992188 -26.25 47.804688 -28.03125 49.265625 -30.1875 C 50.734375 -32.351562 51.84375 -34.734375 52.59375 -37.328125 C 53.351562 -39.929688 53.734375 -42.425781 53.734375 -44.8125 Z M 53.734375 -44.8125 "/></g></g></g><g fill="#1b2538" fill-opacity="1"><g transform="translate(722.046846, 529.971737)"><g/></g></g></svg>