<svg xmlns="http://www.w3.org/2000/svg" xmlns:xlink="http://www.w3.org/1999/xlink" width="500" zoomAndPan="magnify" viewBox="0 0 375 374.999991" height="500" preserveAspectRatio="xMidYMid meet" version="1.0"><defs><g/><clipPath id="ac94d2d50e"><path d="M 199 123.511719 L 222 123.511719 L 222 149 L 199 149 Z M 199 123.511719 " clip-rule="nonzero"/></clipPath><clipPath id="931e95273d"><path d="M 187 133 L 250 133 L 250 196.261719 L 187 196.261719 Z M 187 133 " clip-rule="nonzero"/></clipPath><clipPath id="0c6e16d383"><path d="M 152 123.511719 L 175 123.511719 L 175 149 L 152 149 Z M 152 123.511719 " clip-rule="nonzero"/></clipPath><clipPath id="cc44bd7a65"><path d="M 124.761719 133 L 188 133 L 188 196.261719 L 124.761719 196.261719 Z M 124.761719 133 " clip-rule="nonzero"/></clipPath></defs><rect x="-37.5" width="450" fill="#ffffff" y="-37.499999" height="449.999989" fill-opacity="1"/><rect x="-37.5" width="450" fill="#ffffff" y="-37.499999" height="449.999989" fill-opacity="1"/><rect x="-37.5" width="450" fill="#ffffff" y="-37.499999" height="449.999989" fill-opacity="1"/><path fill="#ffffff" d="M 187.164062 193.898438 L 187.523438 193.898438 L 187.523438 193.675781 C 187.433594 193.765625 187.300781 193.855469 187.164062 193.898438 Z M 187.164062 193.898438 " fill-opacity="1" fill-rule="nonzero"/><g clip-path="url(#ac94d2d50e)"><path fill="#437f86" d="M 221.796875 135.769531 C 221.796875 136.578125 221.726562 137.375 221.585938 138.164062 C 221.445312 138.953125 221.238281 139.71875 220.964844 140.460938 C 220.691406 141.207031 220.355469 141.914062 219.957031 142.582031 C 219.558594 143.25 219.109375 143.871094 218.601562 144.441406 C 218.09375 145.007812 217.542969 145.515625 216.949219 145.964844 C 216.355469 146.410156 215.726562 146.789062 215.0625 147.097656 C 214.402344 147.40625 213.71875 147.636719 213.019531 147.792969 C 212.316406 147.953125 211.605469 148.03125 210.890625 148.03125 C 210.175781 148.03125 209.464844 147.953125 208.761719 147.792969 C 208.0625 147.636719 207.378906 147.40625 206.71875 147.097656 C 206.054688 146.789062 205.425781 146.410156 204.832031 145.964844 C 204.238281 145.515625 203.6875 145.007812 203.179688 144.441406 C 202.671875 143.871094 202.222656 143.25 201.824219 142.582031 C 201.425781 141.914062 201.089844 141.207031 200.816406 140.460938 C 200.542969 139.71875 200.335938 138.953125 200.195312 138.164062 C 200.054688 137.375 199.984375 136.578125 199.984375 135.769531 C 199.984375 134.964844 200.054688 134.167969 200.195312 133.378906 C 200.335938 132.589844 200.542969 131.824219 200.816406 131.082031 C 201.089844 130.335938 201.425781 129.628906 201.824219 128.960938 C 202.222656 128.292969 202.671875 127.671875 203.179688 127.101562 C 203.6875 126.535156 204.238281 126.027344 204.832031 125.578125 C 205.425781 125.132812 206.054688 124.753906 206.71875 124.445312 C 207.378906 124.136719 208.0625 123.90625 208.761719 123.75 C 209.464844 123.589844 210.175781 123.511719 210.890625 123.511719 C 211.605469 123.511719 212.316406 123.589844 213.019531 123.75 C 213.71875 123.90625 214.402344 124.136719 215.0625 124.445312 C 215.726562 124.753906 216.355469 125.132812 216.949219 125.578125 C 217.542969 126.027344 218.09375 126.535156 218.601562 127.101562 C 219.109375 127.671875 219.558594 128.292969 219.957031 128.960938 C 220.355469 129.628906 220.691406 130.335938 220.964844 131.082031 C 221.238281 131.824219 221.445312 132.589844 221.585938 133.378906 C 221.726562 134.167969 221.796875 134.964844 221.796875 135.769531 Z M 221.796875 135.769531 " fill-opacity="1" fill-rule="nonzero"/></g><g clip-path="url(#931e95273d)"><path fill="#437f86" d="M 247.390625 173.839844 C 227.183594 170.988281 222.953125 158.953125 234.617188 137.6875 C 235.640625 135.769531 234.304688 133.453125 232.125 133.453125 C 231.011719 133.453125 229.988281 134.121094 229.542969 135.148438 C 222.777344 150.839844 207.6875 156.054688 187.65625 155.164062 L 187.65625 155.117188 C 187.566406 155.117188 187.476562 155.117188 187.386719 155.117188 L 187.386719 164.703125 C 188.234375 164.300781 189.125 163.855469 190.058594 163.5 C 195.398438 161.359375 202.34375 160.378906 205.550781 167.554688 C 206.929688 170.675781 206.882812 174.285156 205.726562 177.496094 C 203.5 183.601562 195.757812 191.625 187.386719 196.085938 L 187.386719 196.261719 L 200.429688 196.261719 C 210.800781 181.507812 226.246094 176.46875 246.457031 180.480469 C 248.238281 180.839844 249.882812 179.5 249.882812 177.71875 L 249.882812 176.691406 C 249.839844 175.222656 248.769531 174.019531 247.390625 173.839844 Z M 247.390625 173.839844 " fill-opacity="1" fill-rule="nonzero"/></g><g clip-path="url(#0c6e16d383)"><path fill="#ffffff" d="M 174.746094 135.769531 C 174.746094 136.578125 174.675781 137.375 174.535156 138.164062 C 174.398438 138.953125 174.191406 139.71875 173.917969 140.460938 C 173.640625 141.207031 173.304688 141.914062 172.910156 142.582031 C 172.511719 143.25 172.058594 143.871094 171.550781 144.441406 C 171.046875 145.007812 170.496094 145.515625 169.898438 145.964844 C 169.304688 146.410156 168.675781 146.789062 168.015625 147.097656 C 167.351562 147.40625 166.671875 147.636719 165.96875 147.792969 C 165.265625 147.953125 164.558594 148.03125 163.839844 148.03125 C 163.125 148.03125 162.414062 147.953125 161.714844 147.792969 C 161.011719 147.636719 160.328125 147.40625 159.667969 147.097656 C 159.007812 146.789062 158.378906 146.410156 157.78125 145.964844 C 157.1875 145.515625 156.636719 145.007812 156.128906 144.441406 C 155.625 143.871094 155.171875 143.25 154.773438 142.582031 C 154.375 141.914062 154.039062 141.207031 153.765625 140.460938 C 153.492188 139.71875 153.285156 138.953125 153.144531 138.164062 C 153.003906 137.375 152.933594 136.578125 152.933594 135.769531 C 152.933594 134.964844 153.003906 134.167969 153.144531 133.378906 C 153.285156 132.589844 153.492188 131.824219 153.765625 131.082031 C 154.039062 130.335938 154.375 129.628906 154.773438 128.960938 C 155.171875 128.292969 155.625 127.671875 156.128906 127.101562 C 156.636719 126.535156 157.1875 126.027344 157.78125 125.578125 C 158.378906 125.132812 159.007812 124.753906 159.667969 124.445312 C 160.328125 124.136719 161.011719 123.90625 161.714844 123.75 C 162.414062 123.589844 163.125 123.511719 163.839844 123.511719 C 164.558594 123.511719 165.265625 123.589844 165.96875 123.75 C 166.671875 123.90625 167.351562 124.136719 168.015625 124.445312 C 168.675781 124.753906 169.304688 125.132812 169.898438 125.578125 C 170.496094 126.027344 171.046875 126.535156 171.550781 127.101562 C 172.058594 127.671875 172.511719 128.292969 172.910156 128.960938 C 173.304688 129.628906 173.640625 130.335938 173.917969 131.082031 C 174.191406 131.824219 174.398438 132.589844 174.535156 133.378906 C 174.675781 134.167969 174.746094 134.964844 174.746094 135.769531 Z M 174.746094 135.769531 " fill-opacity="1" fill-rule="nonzero"/></g><g clip-path="url(#cc44bd7a65)"><path fill="#ffffff" d="M 127.386719 173.839844 C 147.59375 170.988281 151.824219 158.953125 140.160156 137.6875 C 139.136719 135.769531 140.472656 133.453125 142.652344 133.453125 C 143.765625 133.453125 144.789062 134.121094 145.234375 135.148438 C 152 150.839844 167.089844 156.054688 187.121094 155.164062 L 187.121094 155.117188 C 187.210938 155.117188 187.300781 155.117188 187.386719 155.117188 L 187.386719 164.703125 C 186.542969 164.300781 185.652344 163.855469 184.71875 163.5 C 179.375 161.359375 172.433594 160.378906 169.226562 167.554688 C 167.847656 170.675781 167.890625 174.285156 169.050781 177.496094 C 171.273438 183.601562 179.019531 191.625 187.386719 196.085938 L 187.386719 196.261719 L 174.347656 196.261719 C 163.972656 181.507812 148.527344 176.46875 128.320312 180.480469 C 126.539062 180.839844 124.894531 179.5 124.894531 177.71875 L 124.894531 176.691406 C 124.894531 175.222656 125.960938 174.019531 127.386719 173.839844 Z M 127.386719 173.839844 " fill-opacity="1" fill-rule="nonzero"/></g><g fill="#c92243" fill-opacity="1"><g transform="translate(48.802898, 230.037378)"><g><path d="M 17.828125 -4.859375 C 17.828125 -4.265625 17.585938 -3.707031 17.109375 -3.1875 C 16.628906 -2.675781 16.003906 -2.207031 15.234375 -1.78125 C 14.472656 -1.363281 13.625 -1 12.6875 -0.6875 C 11.75 -0.375 10.820312 -0.109375 9.90625 0.109375 C 9 0.335938 8.140625 0.507812 7.328125 0.625 C 6.523438 0.75 5.890625 0.8125 5.421875 0.8125 C 4.972656 0.8125 4.492188 0.769531 3.984375 0.6875 C 3.484375 0.601562 3.070312 0.421875 2.75 0.140625 C 2.5625 -0.00390625 2.394531 -0.320312 2.25 -0.8125 C 2.113281 -1.300781 1.976562 -1.882812 1.84375 -2.5625 C 1.71875 -3.25 1.609375 -3.984375 1.515625 -4.765625 C 1.421875 -5.546875 1.34375 -6.3125 1.28125 -7.0625 C 1.226562 -7.8125 1.179688 -8.503906 1.140625 -9.140625 C 1.109375 -9.773438 1.09375 -10.269531 1.09375 -10.625 C 1.09375 -11.207031 1.109375 -11.914062 1.140625 -12.75 C 1.179688 -13.582031 1.234375 -14.472656 1.296875 -15.421875 C 1.367188 -16.367188 1.460938 -17.332031 1.578125 -18.3125 C 1.703125 -19.300781 1.835938 -20.234375 1.984375 -21.109375 C 2.140625 -21.992188 2.328125 -22.785156 2.546875 -23.484375 C 2.773438 -24.191406 3.015625 -24.742188 3.265625 -25.140625 C 3.710938 -25.773438 4.273438 -26.09375 4.953125 -26.09375 C 5.421875 -26.09375 5.816406 -25.929688 6.140625 -25.609375 C 6.472656 -25.296875 6.738281 -24.882812 6.9375 -24.375 C 7.144531 -23.875 7.300781 -23.3125 7.40625 -22.6875 C 7.507812 -22.070312 7.582031 -21.457031 7.625 -20.84375 C 7.675781 -20.238281 7.703125 -19.675781 7.703125 -19.15625 C 7.703125 -18.644531 7.703125 -18.238281 7.703125 -17.9375 C 7.703125 -16.101562 7.660156 -14.289062 7.578125 -12.5 C 7.492188 -10.707031 7.453125 -8.894531 7.453125 -7.0625 L 7.453125 -5.703125 C 8.503906 -6.023438 9.648438 -6.332031 10.890625 -6.625 C 12.140625 -6.914062 13.328125 -7.0625 14.453125 -7.0625 C 14.847656 -7.0625 15.25 -7.035156 15.65625 -6.984375 C 16.070312 -6.941406 16.4375 -6.84375 16.75 -6.6875 C 17.070312 -6.539062 17.332031 -6.320312 17.53125 -6.03125 C 17.726562 -5.738281 17.828125 -5.347656 17.828125 -4.859375 Z M 17.828125 -4.859375 "/></g></g><g transform="translate(66.451334, 230.037378)"><g><path d="M 15.78125 -6.265625 C 15.78125 -5.460938 15.53125 -4.679688 15.03125 -3.921875 C 14.53125 -3.160156 13.894531 -2.476562 13.125 -1.875 C 12.363281 -1.28125 11.550781 -0.800781 10.6875 -0.4375 C 9.820312 -0.0703125 9.023438 0.109375 8.296875 0.109375 C 7.054688 0.109375 5.945312 -0.203125 4.96875 -0.828125 C 4 -1.453125 3.1875 -2.242188 2.53125 -3.203125 C 1.875 -4.160156 1.375 -5.21875 1.03125 -6.375 C 0.695312 -7.539062 0.53125 -8.675781 0.53125 -9.78125 C 0.53125 -10.945312 0.691406 -12.195312 1.015625 -13.53125 C 1.347656 -14.875 1.847656 -16.109375 2.515625 -17.234375 C 3.179688 -18.359375 4.023438 -19.296875 5.046875 -20.046875 C 6.066406 -20.796875 7.28125 -21.171875 8.6875 -21.171875 C 9.476562 -21.171875 10.238281 -21.035156 10.96875 -20.765625 C 11.695312 -20.492188 12.328125 -20.109375 12.859375 -19.609375 C 13.398438 -19.117188 13.832031 -18.535156 14.15625 -17.859375 C 14.488281 -17.179688 14.65625 -16.421875 14.65625 -15.578125 C 14.65625 -14.472656 14.421875 -13.441406 13.953125 -12.484375 C 13.484375 -11.523438 12.863281 -10.691406 12.09375 -9.984375 C 11.320312 -9.285156 10.429688 -8.71875 9.421875 -8.28125 C 8.410156 -7.84375 7.378906 -7.601562 6.328125 -7.5625 C 6.421875 -6.882812 6.695312 -6.390625 7.15625 -6.078125 C 7.613281 -5.773438 8.160156 -5.625 8.796875 -5.625 C 9.265625 -5.625 9.71875 -5.738281 10.15625 -5.96875 C 10.601562 -6.207031 11.035156 -6.472656 11.453125 -6.765625 C 11.878906 -7.054688 12.296875 -7.316406 12.703125 -7.546875 C 13.117188 -7.785156 13.535156 -7.90625 13.953125 -7.90625 C 14.421875 -7.90625 14.84375 -7.753906 15.21875 -7.453125 C 15.59375 -7.148438 15.78125 -6.753906 15.78125 -6.265625 Z M 10.09375 -14.875 C 10.09375 -15.175781 10.007812 -15.488281 9.84375 -15.8125 C 9.675781 -16.144531 9.421875 -16.3125 9.078125 -16.3125 C 8.554688 -16.3125 8.117188 -16.175781 7.765625 -15.90625 C 7.421875 -15.632812 7.128906 -15.296875 6.890625 -14.890625 C 6.660156 -14.484375 6.476562 -14.046875 6.34375 -13.578125 C 6.21875 -13.109375 6.144531 -12.671875 6.125 -12.265625 C 6.445312 -12.335938 6.835938 -12.429688 7.296875 -12.546875 C 7.753906 -12.671875 8.1875 -12.832031 8.59375 -13.03125 C 9.007812 -13.226562 9.363281 -13.476562 9.65625 -13.78125 C 9.945312 -14.082031 10.09375 -14.445312 10.09375 -14.875 Z M 10.09375 -14.875 "/></g></g><g transform="translate(82.588052, 230.037378)"><g><path d="M 9.25 1.265625 C 7.582031 1.265625 6.285156 1.046875 5.359375 0.609375 C 4.429688 0.179688 3.738281 -0.425781 3.28125 -1.21875 C 2.832031 -2.019531 2.5625 -2.984375 2.46875 -4.109375 C 2.375 -5.234375 2.328125 -6.488281 2.328125 -7.875 C 2.328125 -8.976562 2.359375 -10.085938 2.421875 -11.203125 C 2.492188 -12.316406 2.601562 -13.503906 2.75 -14.765625 C 2.414062 -14.765625 2.15625 -14.757812 1.96875 -14.75 C 1.78125 -14.738281 1.628906 -14.734375 1.515625 -14.734375 C 0.765625 -14.734375 0.113281 -14.894531 -0.4375 -15.21875 C -0.988281 -15.550781 -1.265625 -16.054688 -1.265625 -16.734375 C -1.265625 -17.160156 -1.101562 -17.535156 -0.78125 -17.859375 C -0.46875 -18.191406 -0.0664062 -18.472656 0.421875 -18.703125 C 0.910156 -18.941406 1.441406 -19.128906 2.015625 -19.265625 C 2.597656 -19.410156 3.144531 -19.503906 3.65625 -19.546875 C 3.65625 -20.203125 3.703125 -20.925781 3.796875 -21.71875 C 3.890625 -22.519531 4.054688 -23.265625 4.296875 -23.953125 C 4.546875 -24.648438 4.878906 -25.234375 5.296875 -25.703125 C 5.722656 -26.171875 6.265625 -26.40625 6.921875 -26.40625 C 7.296875 -26.40625 7.628906 -26.289062 7.921875 -26.0625 C 8.222656 -25.84375 8.46875 -25.5625 8.65625 -25.21875 C 8.84375 -24.882812 8.984375 -24.503906 9.078125 -24.078125 C 9.171875 -23.660156 9.21875 -23.253906 9.21875 -22.859375 C 9.21875 -22.390625 9.179688 -21.90625 9.109375 -21.40625 C 9.035156 -20.914062 8.90625 -20.304688 8.71875 -19.578125 C 9.113281 -19.628906 9.378906 -19.660156 9.515625 -19.671875 C 9.660156 -19.679688 9.796875 -19.6875 9.921875 -19.6875 C 10.316406 -19.6875 10.726562 -19.648438 11.15625 -19.578125 C 11.59375 -19.515625 11.992188 -19.398438 12.359375 -19.234375 C 12.722656 -19.066406 13.019531 -18.847656 13.25 -18.578125 C 13.488281 -18.304688 13.609375 -17.984375 13.609375 -17.609375 C 13.609375 -17.191406 13.4375 -16.816406 13.09375 -16.484375 C 12.757812 -16.160156 12.332031 -15.878906 11.8125 -15.640625 C 11.300781 -15.410156 10.75 -15.226562 10.15625 -15.09375 C 9.570312 -14.96875 9.023438 -14.882812 8.515625 -14.84375 C 8.367188 -13.875 8.265625 -12.984375 8.203125 -12.171875 C 8.148438 -11.367188 8.085938 -10.554688 8.015625 -9.734375 C 7.972656 -9.335938 7.929688 -8.929688 7.890625 -8.515625 C 7.859375 -8.109375 7.84375 -7.695312 7.84375 -7.28125 C 7.84375 -6.976562 7.851562 -6.617188 7.875 -6.203125 C 7.894531 -5.796875 7.972656 -5.40625 8.109375 -5.03125 C 8.253906 -4.65625 8.476562 -4.332031 8.78125 -4.0625 C 9.09375 -3.789062 9.519531 -3.65625 10.0625 -3.65625 C 10.382812 -3.65625 10.722656 -3.679688 11.078125 -3.734375 C 11.429688 -3.796875 11.78125 -3.828125 12.125 -3.828125 C 12.738281 -3.828125 13.179688 -3.613281 13.453125 -3.1875 C 13.722656 -2.769531 13.859375 -2.234375 13.859375 -1.578125 C 13.859375 -1.085938 13.707031 -0.660156 13.40625 -0.296875 C 13.113281 0.0664062 12.742188 0.359375 12.296875 0.578125 C 11.859375 0.804688 11.363281 0.976562 10.8125 1.09375 C 10.257812 1.207031 9.738281 1.265625 9.25 1.265625 Z M 9.25 1.265625 "/></g></g><g transform="translate(96.088051, 230.037378)"><g><path d="M 4.53125 -22.75 C 4.53125 -22.394531 4.503906 -21.847656 4.453125 -21.109375 C 4.410156 -20.367188 4.332031 -19.628906 4.21875 -18.890625 C 4.101562 -18.160156 3.925781 -17.519531 3.6875 -16.96875 C 3.457031 -16.414062 3.164062 -16.140625 2.8125 -16.140625 C 2.601562 -16.140625 2.414062 -16.28125 2.25 -16.5625 C 2.082031 -16.84375 1.9375 -17.191406 1.8125 -17.609375 C 1.6875 -18.035156 1.578125 -18.503906 1.484375 -19.015625 C 1.390625 -19.535156 1.3125 -20.039062 1.25 -20.53125 C 1.1875 -21.019531 1.144531 -21.457031 1.125 -21.84375 C 1.101562 -22.238281 1.09375 -22.53125 1.09375 -22.71875 C 1.09375 -22.945312 1.101562 -23.257812 1.125 -23.65625 C 1.144531 -24.0625 1.207031 -24.457031 1.3125 -24.84375 C 1.425781 -25.226562 1.582031 -25.554688 1.78125 -25.828125 C 1.976562 -26.097656 2.265625 -26.234375 2.640625 -26.234375 C 3.054688 -26.234375 3.390625 -26.109375 3.640625 -25.859375 C 3.890625 -25.609375 4.082031 -25.300781 4.21875 -24.9375 C 4.363281 -24.582031 4.453125 -24.203125 4.484375 -23.796875 C 4.515625 -23.398438 4.53125 -23.050781 4.53125 -22.75 Z M 4.53125 -22.75 "/></g></g><g transform="translate(101.713051, 230.037378)"><g><path d="M 11.359375 -19.34375 C 11.359375 -18.65625 11.128906 -18.144531 10.671875 -17.8125 C 10.210938 -17.488281 9.703125 -17.179688 9.140625 -16.890625 C 8.578125 -16.597656 8.066406 -16.253906 7.609375 -15.859375 C 7.148438 -15.460938 6.921875 -14.863281 6.921875 -14.0625 C 6.921875 -13.644531 7.019531 -13.28125 7.21875 -12.96875 C 7.425781 -12.664062 7.675781 -12.390625 7.96875 -12.140625 C 8.257812 -11.898438 8.578125 -11.648438 8.921875 -11.390625 C 9.273438 -11.128906 9.597656 -10.832031 9.890625 -10.5 C 10.191406 -10.175781 10.441406 -9.78125 10.640625 -9.3125 C 10.835938 -8.84375 10.9375 -8.269531 10.9375 -7.59375 C 10.9375 -6.613281 10.679688 -5.644531 10.171875 -4.6875 C 9.671875 -3.738281 9.023438 -2.894531 8.234375 -2.15625 C 7.453125 -1.425781 6.566406 -0.835938 5.578125 -0.390625 C 4.597656 0.0546875 3.628906 0.28125 2.671875 0.28125 C 2.273438 0.28125 1.875 0.25 1.46875 0.1875 C 1.070312 0.132812 0.710938 0.0234375 0.390625 -0.140625 C 0.078125 -0.304688 -0.179688 -0.535156 -0.390625 -0.828125 C -0.597656 -1.117188 -0.703125 -1.5 -0.703125 -1.96875 C -0.703125 -2.625 -0.570312 -3.132812 -0.3125 -3.5 C -0.0507812 -3.863281 0.273438 -4.148438 0.671875 -4.359375 C 1.066406 -4.566406 1.492188 -4.726562 1.953125 -4.84375 C 2.410156 -4.96875 2.835938 -5.117188 3.234375 -5.296875 C 3.628906 -5.472656 3.957031 -5.703125 4.21875 -5.984375 C 4.476562 -6.265625 4.609375 -6.660156 4.609375 -7.171875 C 4.609375 -7.660156 4.414062 -8.171875 4.03125 -8.703125 C 3.644531 -9.234375 3.21875 -9.796875 2.75 -10.390625 C 2.28125 -10.984375 1.847656 -11.617188 1.453125 -12.296875 C 1.066406 -12.984375 0.875 -13.738281 0.875 -14.5625 C 0.875 -15.5625 1.078125 -16.488281 1.484375 -17.34375 C 1.898438 -18.207031 2.453125 -18.953125 3.140625 -19.578125 C 3.835938 -20.210938 4.628906 -20.710938 5.515625 -21.078125 C 6.410156 -21.441406 7.347656 -21.625 8.328125 -21.625 C 8.703125 -21.625 9.070312 -21.585938 9.4375 -21.515625 C 9.800781 -21.441406 10.125 -21.316406 10.40625 -21.140625 C 10.6875 -20.972656 10.914062 -20.738281 11.09375 -20.4375 C 11.269531 -20.144531 11.359375 -19.78125 11.359375 -19.34375 Z M 11.359375 -19.34375 "/></g></g><g transform="translate(113.420081, 230.037378)"><g/></g><g transform="translate(121.892737, 230.037378)"><g><path d="M 16.8125 -8.4375 C 16.59375 -7.382812 16.253906 -6.289062 15.796875 -5.15625 C 15.347656 -4.019531 14.765625 -2.984375 14.046875 -2.046875 C 13.328125 -1.109375 12.472656 -0.34375 11.484375 0.25 C 10.503906 0.851562 9.382812 1.15625 8.125 1.15625 C 7.1875 1.15625 6.34375 0.96875 5.59375 0.59375 C 4.84375 0.21875 4.160156 -0.28125 3.546875 -0.90625 C 2.941406 -1.539062 2.414062 -2.269531 1.96875 -3.09375 C 1.519531 -3.914062 1.148438 -4.765625 0.859375 -5.640625 C 0.566406 -6.523438 0.347656 -7.398438 0.203125 -8.265625 C 0.0664062 -9.128906 0 -9.9375 0 -10.6875 C 0 -11.738281 0.0976562 -12.867188 0.296875 -14.078125 C 0.492188 -15.285156 0.789062 -16.476562 1.1875 -17.65625 C 1.59375 -18.84375 2.097656 -19.984375 2.703125 -21.078125 C 3.316406 -22.171875 4.039062 -23.128906 4.875 -23.953125 C 5.707031 -24.785156 6.644531 -25.453125 7.6875 -25.953125 C 8.726562 -26.460938 9.894531 -26.71875 11.1875 -26.71875 C 12 -26.71875 12.753906 -26.554688 13.453125 -26.234375 C 14.160156 -25.921875 14.769531 -25.5 15.28125 -24.96875 C 15.800781 -24.445312 16.207031 -23.820312 16.5 -23.09375 C 16.800781 -22.375 16.953125 -21.613281 16.953125 -20.8125 L 16.953125 -20.5 C 16.953125 -20.070312 16.929688 -19.546875 16.890625 -18.921875 C 16.859375 -18.304688 16.75 -17.71875 16.5625 -17.15625 C 16.375 -16.59375 16.09375 -16.101562 15.71875 -15.6875 C 15.34375 -15.28125 14.816406 -15.078125 14.140625 -15.078125 C 13.316406 -15.078125 12.691406 -15.265625 12.265625 -15.640625 C 11.847656 -16.015625 11.640625 -16.640625 11.640625 -17.515625 C 11.640625 -17.835938 11.648438 -18.160156 11.671875 -18.484375 C 11.691406 -18.816406 11.703125 -19.148438 11.703125 -19.484375 C 11.703125 -19.972656 11.617188 -20.351562 11.453125 -20.625 C 11.296875 -20.894531 10.957031 -21.03125 10.4375 -21.03125 C 9.851562 -21.03125 9.328125 -20.84375 8.859375 -20.46875 C 8.390625 -20.09375 7.976562 -19.597656 7.625 -18.984375 C 7.28125 -18.378906 6.976562 -17.6875 6.71875 -16.90625 C 6.457031 -16.132812 6.242188 -15.351562 6.078125 -14.5625 C 5.921875 -13.78125 5.804688 -13.023438 5.734375 -12.296875 C 5.660156 -11.578125 5.625 -10.957031 5.625 -10.4375 C 5.625 -10.019531 5.644531 -9.535156 5.6875 -8.984375 C 5.738281 -8.429688 5.835938 -7.898438 5.984375 -7.390625 C 6.140625 -6.890625 6.367188 -6.460938 6.671875 -6.109375 C 6.984375 -5.765625 7.382812 -5.59375 7.875 -5.59375 C 8.71875 -5.59375 9.394531 -5.851562 9.90625 -6.375 C 10.425781 -6.90625 10.78125 -7.582031 10.96875 -8.40625 C 10.644531 -8.445312 10.320312 -8.519531 10 -8.625 C 9.6875 -8.738281 9.394531 -8.894531 9.125 -9.09375 C 8.851562 -9.289062 8.632812 -9.535156 8.46875 -9.828125 C 8.3125 -10.117188 8.234375 -10.460938 8.234375 -10.859375 C 8.234375 -11.585938 8.476562 -12.15625 8.96875 -12.5625 C 9.457031 -12.976562 10.035156 -13.289062 10.703125 -13.5 C 11.367188 -13.707031 12.050781 -13.84375 12.75 -13.90625 C 13.457031 -13.96875 14.023438 -14 14.453125 -14 C 14.753906 -14 15.195312 -13.972656 15.78125 -13.921875 C 16.375 -13.878906 16.957031 -13.78125 17.53125 -13.625 C 18.101562 -13.46875 18.597656 -13.25 19.015625 -12.96875 C 19.441406 -12.6875 19.65625 -12.328125 19.65625 -11.890625 C 19.65625 -10.992188 19.414062 -10.222656 18.9375 -9.578125 C 18.457031 -8.929688 17.75 -8.550781 16.8125 -8.4375 Z M 16.8125 -8.4375 "/></g></g><g transform="translate(140.631017, 230.037378)"><g><path d="M 13.25 -13.15625 C 12.925781 -13.125 12.644531 -13.148438 12.40625 -13.234375 C 12.175781 -13.316406 11.941406 -13.40625 11.703125 -13.5 C 11.492188 -13.59375 11.285156 -13.679688 11.078125 -13.765625 C 10.867188 -13.847656 10.632812 -13.878906 10.375 -13.859375 C 9.90625 -13.828125 9.488281 -13.691406 9.125 -13.453125 C 8.757812 -13.222656 8.429688 -12.929688 8.140625 -12.578125 C 7.847656 -12.234375 7.59375 -11.84375 7.375 -11.40625 C 7.164062 -10.976562 7.003906 -10.550781 6.890625 -10.125 C 6.816406 -9.84375 6.765625 -9.414062 6.734375 -8.84375 C 6.703125 -8.269531 6.6875 -7.65625 6.6875 -7 C 6.65625 -6.320312 6.640625 -5.675781 6.640625 -5.0625 C 6.640625 -4.457031 6.617188 -3.976562 6.578125 -3.625 C 6.554688 -3.25 6.5 -2.804688 6.40625 -2.296875 C 6.3125 -1.796875 6.160156 -1.320312 5.953125 -0.875 C 5.753906 -0.4375 5.488281 -0.0664062 5.15625 0.234375 C 4.832031 0.546875 4.414062 0.703125 3.90625 0.703125 C 3.507812 0.703125 3.160156 0.582031 2.859375 0.34375 C 2.566406 0.113281 2.320312 -0.191406 2.125 -0.578125 C 1.925781 -0.960938 1.757812 -1.410156 1.625 -1.921875 C 1.5 -2.441406 1.40625 -2.972656 1.34375 -3.515625 C 1.269531 -4.078125 1.210938 -4.640625 1.171875 -5.203125 C 1.140625 -5.765625 1.117188 -6.296875 1.109375 -6.796875 C 1.097656 -7.304688 1.097656 -7.769531 1.109375 -8.1875 C 1.117188 -8.613281 1.125 -8.957031 1.125 -9.21875 C 1.101562 -10.03125 1.0625 -10.851562 1 -11.6875 C 0.945312 -12.519531 0.921875 -13.347656 0.921875 -14.171875 C 0.921875 -14.679688 0.941406 -15.253906 0.984375 -15.890625 C 1.035156 -16.523438 1.164062 -17.117188 1.375 -17.671875 C 1.582031 -18.222656 1.890625 -18.6875 2.296875 -19.0625 C 2.710938 -19.4375 3.285156 -19.625 4.015625 -19.625 C 4.410156 -19.625 4.75 -19.492188 5.03125 -19.234375 C 5.3125 -18.972656 5.539062 -18.65625 5.71875 -18.28125 C 5.894531 -17.90625 6.03125 -17.503906 6.125 -17.078125 C 6.21875 -16.660156 6.273438 -16.273438 6.296875 -15.921875 C 6.859375 -16.835938 7.488281 -17.582031 8.1875 -18.15625 C 8.894531 -18.726562 9.8125 -19.039062 10.9375 -19.09375 C 11.5 -19.113281 12.054688 -19.054688 12.609375 -18.921875 C 13.160156 -18.796875 13.660156 -18.585938 14.109375 -18.296875 C 14.566406 -18.003906 14.941406 -17.625 15.234375 -17.15625 C 15.535156 -16.6875 15.695312 -16.132812 15.71875 -15.5 C 15.757812 -14.75 15.535156 -14.175781 15.046875 -13.78125 C 14.554688 -13.382812 13.957031 -13.175781 13.25 -13.15625 Z M 13.25 -13.15625 "/></g></g><g transform="translate(155.818516, 230.037378)"><g><path d="M 7.734375 1.015625 C 6.535156 1.015625 5.488281 0.695312 4.59375 0.0625 C 3.707031 -0.5625 2.957031 -1.363281 2.34375 -2.34375 C 1.738281 -3.332031 1.285156 -4.429688 0.984375 -5.640625 C 0.679688 -6.847656 0.53125 -8.039062 0.53125 -9.21875 C 0.53125 -10.457031 0.679688 -11.738281 0.984375 -13.0625 C 1.285156 -14.382812 1.753906 -15.585938 2.390625 -16.671875 C 3.023438 -17.765625 3.832031 -18.65625 4.8125 -19.34375 C 5.800781 -20.039062 6.972656 -20.390625 8.328125 -20.390625 C 9.640625 -20.390625 10.757812 -20.03125 11.6875 -19.3125 C 12.613281 -18.601562 13.359375 -17.710938 13.921875 -16.640625 C 14.484375 -15.578125 14.878906 -14.410156 15.109375 -13.140625 C 15.347656 -11.878906 15.429688 -10.6875 15.359375 -9.5625 C 15.296875 -8.320312 15.101562 -7.066406 14.78125 -5.796875 C 14.46875 -4.535156 14.003906 -3.398438 13.390625 -2.390625 C 12.785156 -1.378906 12.015625 -0.5625 11.078125 0.0625 C 10.140625 0.695312 9.023438 1.015625 7.734375 1.015625 Z M 8.09375 -14.875 C 7.738281 -14.875 7.425781 -14.6875 7.15625 -14.3125 C 6.882812 -13.9375 6.660156 -13.476562 6.484375 -12.9375 C 6.304688 -12.394531 6.171875 -11.828125 6.078125 -11.234375 C 5.984375 -10.640625 5.9375 -10.117188 5.9375 -9.671875 C 5.9375 -9.109375 5.988281 -8.5 6.09375 -7.84375 C 6.207031 -7.1875 6.359375 -6.582031 6.546875 -6.03125 C 6.734375 -5.476562 6.957031 -5.019531 7.21875 -4.65625 C 7.488281 -4.289062 7.800781 -4.109375 8.15625 -4.109375 C 8.53125 -4.109375 8.851562 -4.285156 9.125 -4.640625 C 9.394531 -4.992188 9.609375 -5.4375 9.765625 -5.96875 C 9.929688 -6.507812 10.050781 -7.101562 10.125 -7.75 C 10.195312 -8.394531 10.234375 -9 10.234375 -9.5625 C 10.234375 -10.082031 10.1875 -10.648438 10.09375 -11.265625 C 10 -11.890625 9.863281 -12.46875 9.6875 -13 C 9.507812 -13.539062 9.285156 -13.988281 9.015625 -14.34375 C 8.742188 -14.695312 8.4375 -14.875 8.09375 -14.875 Z M 8.09375 -14.875 "/></g></g><g transform="translate(171.920077, 230.037378)"><g><path d="M 18.5625 0.453125 C 17.8125 0.453125 17.132812 0.0546875 16.53125 -0.734375 C 15.9375 -1.535156 15.414062 -2.492188 14.96875 -3.609375 C 14.53125 -4.722656 14.164062 -5.863281 13.875 -7.03125 C 13.582031 -8.207031 13.363281 -9.179688 13.21875 -9.953125 C 13.03125 -9.484375 12.773438 -8.90625 12.453125 -8.21875 C 12.140625 -7.539062 11.78125 -6.828125 11.375 -6.078125 C 10.96875 -5.328125 10.53125 -4.570312 10.0625 -3.8125 C 9.59375 -3.050781 9.101562 -2.363281 8.59375 -1.75 C 8.09375 -1.144531 7.585938 -0.65625 7.078125 -0.28125 C 6.578125 0.09375 6.09375 0.28125 5.625 0.28125 C 4.988281 0.28125 4.429688 -0.0195312 3.953125 -0.625 C 3.472656 -1.238281 3.066406 -2.035156 2.734375 -3.015625 C 2.410156 -4.003906 2.132812 -5.097656 1.90625 -6.296875 C 1.6875 -7.492188 1.519531 -8.6875 1.40625 -9.875 C 1.289062 -11.070312 1.207031 -12.1875 1.15625 -13.21875 C 1.113281 -14.25 1.09375 -15.082031 1.09375 -15.71875 C 1.09375 -16.300781 1.117188 -16.863281 1.171875 -17.40625 C 1.234375 -17.945312 1.351562 -18.425781 1.53125 -18.84375 C 1.707031 -19.269531 1.960938 -19.601562 2.296875 -19.84375 C 2.640625 -20.09375 3.09375 -20.21875 3.65625 -20.21875 C 4.195312 -20.21875 4.660156 -20.015625 5.046875 -19.609375 C 5.429688 -19.210938 5.753906 -18.691406 6.015625 -18.046875 C 6.273438 -17.410156 6.484375 -16.6875 6.640625 -15.875 C 6.804688 -15.0625 6.9375 -14.238281 7.03125 -13.40625 C 7.125 -12.582031 7.1875 -11.773438 7.21875 -10.984375 C 7.257812 -10.203125 7.289062 -9.53125 7.3125 -8.96875 C 7.457031 -9.457031 7.65625 -10.054688 7.90625 -10.765625 C 8.164062 -11.484375 8.445312 -12.25 8.75 -13.0625 C 9.0625 -13.875 9.394531 -14.675781 9.75 -15.46875 C 10.113281 -16.269531 10.476562 -16.984375 10.84375 -17.609375 C 11.207031 -18.242188 11.566406 -18.757812 11.921875 -19.15625 C 12.273438 -19.5625 12.613281 -19.765625 12.9375 -19.765625 L 12.96875 -19.765625 C 13.394531 -19.765625 13.804688 -19.5625 14.203125 -19.15625 C 14.597656 -18.757812 14.984375 -18.242188 15.359375 -17.609375 C 15.734375 -16.984375 16.082031 -16.265625 16.40625 -15.453125 C 16.738281 -14.640625 17.046875 -13.816406 17.328125 -12.984375 C 17.609375 -12.160156 17.851562 -11.351562 18.0625 -10.5625 C 18.28125 -9.78125 18.457031 -9.109375 18.59375 -8.546875 C 18.625 -9.222656 18.660156 -9.988281 18.703125 -10.84375 C 18.753906 -11.695312 18.84375 -12.554688 18.96875 -13.421875 C 19.09375 -14.296875 19.265625 -15.140625 19.484375 -15.953125 C 19.710938 -16.773438 19.988281 -17.507812 20.3125 -18.15625 C 20.644531 -18.800781 21.050781 -19.316406 21.53125 -19.703125 C 22.007812 -20.085938 22.566406 -20.28125 23.203125 -20.28125 C 23.859375 -20.28125 24.34375 -20.050781 24.65625 -19.59375 C 24.976562 -19.144531 25.140625 -18.59375 25.140625 -17.9375 C 25.140625 -17.226562 25.050781 -16.285156 24.875 -15.109375 C 24.695312 -13.941406 24.457031 -12.671875 24.15625 -11.296875 C 23.851562 -9.929688 23.492188 -8.550781 23.078125 -7.15625 C 22.671875 -5.757812 22.21875 -4.5 21.71875 -3.375 C 21.226562 -2.25 20.710938 -1.328125 20.171875 -0.609375 C 19.640625 0.0976562 19.101562 0.453125 18.5625 0.453125 Z M 18.5625 0.453125 "/></g></g><g transform="translate(197.935701, 230.037378)"><g/></g><g transform="translate(206.408356, 230.037378)"><g><path d="M 16.28125 -24.015625 C 16.28125 -23.429688 16.050781 -22.894531 15.59375 -22.40625 C 15.132812 -21.925781 14.582031 -21.503906 13.9375 -21.140625 C 13.289062 -20.785156 12.628906 -20.488281 11.953125 -20.25 C 11.273438 -20.019531 10.710938 -19.859375 10.265625 -19.765625 C 10.078125 -17.953125 9.929688 -16.148438 9.828125 -14.359375 C 9.722656 -12.566406 9.671875 -10.769531 9.671875 -8.96875 C 9.671875 -8.007812 9.691406 -7.0625 9.734375 -6.125 C 9.785156 -5.1875 9.8125 -4.25 9.8125 -3.3125 C 9.8125 -2.882812 9.769531 -2.414062 9.6875 -1.90625 C 9.601562 -1.40625 9.460938 -0.929688 9.265625 -0.484375 C 9.066406 -0.046875 8.789062 0.320312 8.4375 0.625 C 8.082031 0.9375 7.648438 1.09375 7.140625 1.09375 C 6.523438 1.09375 6.035156 0.921875 5.671875 0.578125 C 5.316406 0.242188 5.035156 -0.164062 4.828125 -0.65625 C 4.628906 -1.15625 4.492188 -1.679688 4.421875 -2.234375 C 4.359375 -2.785156 4.328125 -3.285156 4.328125 -3.734375 C 4.273438 -5.140625 4.238281 -6.550781 4.21875 -7.96875 C 4.195312 -9.382812 4.1875 -10.804688 4.1875 -12.234375 C 4.1875 -13.429688 4.191406 -14.601562 4.203125 -15.75 C 4.210938 -16.894531 4.21875 -18.066406 4.21875 -19.265625 C 3.894531 -19.222656 3.5625 -19.1875 3.21875 -19.15625 C 2.875 -19.132812 2.53125 -19.125 2.1875 -19.125 C 1.90625 -19.125 1.535156 -19.148438 1.078125 -19.203125 C 0.617188 -19.265625 0.179688 -19.375 -0.234375 -19.53125 C -0.660156 -19.6875 -1.023438 -19.894531 -1.328125 -20.15625 C -1.640625 -20.425781 -1.796875 -20.773438 -1.796875 -21.203125 C -1.796875 -21.898438 -1.519531 -22.515625 -0.96875 -23.046875 C -0.414062 -23.578125 0.285156 -24.035156 1.140625 -24.421875 C 1.992188 -24.804688 2.941406 -25.132812 3.984375 -25.40625 C 5.035156 -25.675781 6.066406 -25.882812 7.078125 -26.03125 C 8.097656 -26.1875 9.035156 -26.296875 9.890625 -26.359375 C 10.753906 -26.429688 11.421875 -26.46875 11.890625 -26.46875 C 12.328125 -26.46875 12.796875 -26.453125 13.296875 -26.421875 C 13.804688 -26.390625 14.285156 -26.289062 14.734375 -26.125 C 15.179688 -25.957031 15.550781 -25.707031 15.84375 -25.375 C 16.132812 -25.050781 16.28125 -24.597656 16.28125 -24.015625 Z M 16.28125 -24.015625 "/></g></g><g transform="translate(219.802887, 230.037378)"><g><path d="M 7.734375 1.015625 C 6.535156 1.015625 5.488281 0.695312 4.59375 0.0625 C 3.707031 -0.5625 2.957031 -1.363281 2.34375 -2.34375 C 1.738281 -3.332031 1.285156 -4.429688 0.984375 -5.640625 C 0.679688 -6.847656 0.53125 -8.039062 0.53125 -9.21875 C 0.53125 -10.457031 0.679688 -11.738281 0.984375 -13.0625 C 1.285156 -14.382812 1.753906 -15.585938 2.390625 -16.671875 C 3.023438 -17.765625 3.832031 -18.65625 4.8125 -19.34375 C 5.800781 -20.039062 6.972656 -20.390625 8.328125 -20.390625 C 9.640625 -20.390625 10.757812 -20.03125 11.6875 -19.3125 C 12.613281 -18.601562 13.359375 -17.710938 13.921875 -16.640625 C 14.484375 -15.578125 14.878906 -14.410156 15.109375 -13.140625 C 15.347656 -11.878906 15.429688 -10.6875 15.359375 -9.5625 C 15.296875 -8.320312 15.101562 -7.066406 14.78125 -5.796875 C 14.46875 -4.535156 14.003906 -3.398438 13.390625 -2.390625 C 12.785156 -1.378906 12.015625 -0.5625 11.078125 0.0625 C 10.140625 0.695312 9.023438 1.015625 7.734375 1.015625 Z M 8.09375 -14.875 C 7.738281 -14.875 7.425781 -14.6875 7.15625 -14.3125 C 6.882812 -13.9375 6.660156 -13.476562 6.484375 -12.9375 C 6.304688 -12.394531 6.171875 -11.828125 6.078125 -11.234375 C 5.984375 -10.640625 5.9375 -10.117188 5.9375 -9.671875 C 5.9375 -9.109375 5.988281 -8.5 6.09375 -7.84375 C 6.207031 -7.1875 6.359375 -6.582031 6.546875 -6.03125 C 6.734375 -5.476562 6.957031 -5.019531 7.21875 -4.65625 C 7.488281 -4.289062 7.800781 -4.109375 8.15625 -4.109375 C 8.53125 -4.109375 8.851562 -4.285156 9.125 -4.640625 C 9.394531 -4.992188 9.609375 -5.4375 9.765625 -5.96875 C 9.929688 -6.507812 10.050781 -7.101562 10.125 -7.75 C 10.195312 -8.394531 10.234375 -9 10.234375 -9.5625 C 10.234375 -10.082031 10.1875 -10.648438 10.09375 -11.265625 C 10 -11.890625 9.863281 -12.46875 9.6875 -13 C 9.507812 -13.539062 9.285156 -13.988281 9.015625 -14.34375 C 8.742188 -14.695312 8.4375 -14.875 8.09375 -14.875 Z M 8.09375 -14.875 "/></g></g><g transform="translate(235.904448, 230.037378)"><g><path d="M 16.984375 -11.984375 C 16.984375 -10.796875 16.960938 -9.601562 16.921875 -8.40625 C 16.890625 -7.207031 16.828125 -6.007812 16.734375 -4.8125 C 16.660156 -3.78125 16.566406 -2.675781 16.453125 -1.5 C 16.335938 -0.332031 16.148438 0.828125 15.890625 1.984375 C 15.628906 3.148438 15.285156 4.265625 14.859375 5.328125 C 14.441406 6.390625 13.890625 7.332031 13.203125 8.15625 C 12.515625 8.976562 11.675781 9.632812 10.6875 10.125 C 9.707031 10.613281 8.535156 10.859375 7.171875 10.859375 C 6.535156 10.859375 5.828125 10.757812 5.046875 10.5625 C 4.265625 10.363281 3.523438 10.078125 2.828125 9.703125 C 2.140625 9.328125 1.554688 8.863281 1.078125 8.3125 C 0.597656 7.757812 0.359375 7.125 0.359375 6.40625 C 0.359375 5.863281 0.550781 5.363281 0.9375 4.90625 C 1.320312 4.445312 1.816406 4.21875 2.421875 4.21875 C 2.796875 4.21875 3.15625 4.28125 3.5 4.40625 C 3.84375 4.539062 4.179688 4.6875 4.515625 4.84375 C 4.859375 5.007812 5.1875 5.15625 5.5 5.28125 C 5.820312 5.414062 6.144531 5.484375 6.46875 5.484375 C 7.332031 5.484375 8.054688 5.265625 8.640625 4.828125 C 9.234375 4.398438 9.703125 3.851562 10.046875 3.1875 C 10.398438 2.519531 10.664062 1.789062 10.84375 1 C 11.019531 0.21875 11.144531 -0.523438 11.21875 -1.234375 C 10.75 -0.691406 10.203125 -0.320312 9.578125 -0.125 C 8.960938 0.0703125 8.3125 0.171875 7.625 0.171875 C 6.382812 0.171875 5.332031 -0.0390625 4.46875 -0.46875 C 3.601562 -0.90625 2.898438 -1.503906 2.359375 -2.265625 C 1.816406 -3.023438 1.414062 -3.910156 1.15625 -4.921875 C 0.90625 -5.929688 0.78125 -7.019531 0.78125 -8.1875 C 0.78125 -8.914062 0.851562 -9.738281 1 -10.65625 C 1.15625 -11.570312 1.382812 -12.5 1.6875 -13.4375 C 1.988281 -14.375 2.367188 -15.285156 2.828125 -16.171875 C 3.285156 -17.066406 3.816406 -17.851562 4.421875 -18.53125 C 5.035156 -19.207031 5.722656 -19.753906 6.484375 -20.171875 C 7.242188 -20.597656 8.082031 -20.8125 9 -20.8125 C 9.894531 -20.8125 10.6875 -20.550781 11.375 -20.03125 C 12.0625 -19.519531 12.46875 -18.796875 12.59375 -17.859375 C 12.84375 -18.347656 13.175781 -18.832031 13.59375 -19.3125 C 14.019531 -19.800781 14.539062 -20.046875 15.15625 -20.046875 C 15.476562 -20.046875 15.75 -19.878906 15.96875 -19.546875 C 16.195312 -19.222656 16.375 -18.796875 16.5 -18.265625 C 16.632812 -17.734375 16.734375 -17.15625 16.796875 -16.53125 C 16.867188 -15.914062 16.914062 -15.304688 16.9375 -14.703125 C 16.96875 -14.109375 16.984375 -13.566406 16.984375 -13.078125 C 16.984375 -12.585938 16.984375 -12.222656 16.984375 -11.984375 Z M 11.640625 -9.703125 C 11.640625 -10.054688 11.585938 -10.515625 11.484375 -11.078125 C 11.378906 -11.640625 11.222656 -12.175781 11.015625 -12.6875 C 10.816406 -13.207031 10.566406 -13.65625 10.265625 -14.03125 C 9.960938 -14.40625 9.597656 -14.59375 9.171875 -14.59375 C 8.640625 -14.59375 8.164062 -14.40625 7.75 -14.03125 C 7.34375 -13.65625 7 -13.203125 6.71875 -12.671875 C 6.4375 -12.148438 6.21875 -11.585938 6.0625 -10.984375 C 5.914062 -10.390625 5.84375 -9.878906 5.84375 -9.453125 C 5.84375 -9.148438 5.863281 -8.738281 5.90625 -8.21875 C 5.957031 -7.707031 6.054688 -7.207031 6.203125 -6.71875 C 6.359375 -6.226562 6.5625 -5.804688 6.8125 -5.453125 C 7.070312 -5.097656 7.414062 -4.921875 7.84375 -4.921875 C 8.476562 -4.921875 9.03125 -5.070312 9.5 -5.375 C 9.96875 -5.6875 10.359375 -6.078125 10.671875 -6.546875 C 10.984375 -7.015625 11.222656 -7.53125 11.390625 -8.09375 C 11.554688 -8.65625 11.640625 -9.191406 11.640625 -9.703125 Z M 11.640625 -9.703125 "/></g></g><g transform="translate(254.326322, 230.037378)"><g><path d="M 15.78125 -6.265625 C 15.78125 -5.460938 15.53125 -4.679688 15.03125 -3.921875 C 14.53125 -3.160156 13.894531 -2.476562 13.125 -1.875 C 12.363281 -1.28125 11.550781 -0.800781 10.6875 -0.4375 C 9.820312 -0.0703125 9.023438 0.109375 8.296875 0.109375 C 7.054688 0.109375 5.945312 -0.203125 4.96875 -0.828125 C 4 -1.453125 3.1875 -2.242188 2.53125 -3.203125 C 1.875 -4.160156 1.375 -5.21875 1.03125 -6.375 C 0.695312 -7.539062 0.53125 -8.675781 0.53125 -9.78125 C 0.53125 -10.945312 0.691406 -12.195312 1.015625 -13.53125 C 1.347656 -14.875 1.847656 -16.109375 2.515625 -17.234375 C 3.179688 -18.359375 4.023438 -19.296875 5.046875 -20.046875 C 6.066406 -20.796875 7.28125 -21.171875 8.6875 -21.171875 C 9.476562 -21.171875 10.238281 -21.035156 10.96875 -20.765625 C 11.695312 -20.492188 12.328125 -20.109375 12.859375 -19.609375 C 13.398438 -19.117188 13.832031 -18.535156 14.15625 -17.859375 C 14.488281 -17.179688 14.65625 -16.421875 14.65625 -15.578125 C 14.65625 -14.472656 14.421875 -13.441406 13.953125 -12.484375 C 13.484375 -11.523438 12.863281 -10.691406 12.09375 -9.984375 C 11.320312 -9.285156 10.429688 -8.71875 9.421875 -8.28125 C 8.410156 -7.84375 7.378906 -7.601562 6.328125 -7.5625 C 6.421875 -6.882812 6.695312 -6.390625 7.15625 -6.078125 C 7.613281 -5.773438 8.160156 -5.625 8.796875 -5.625 C 9.265625 -5.625 9.71875 -5.738281 10.15625 -5.96875 C 10.601562 -6.207031 11.035156 -6.472656 11.453125 -6.765625 C 11.878906 -7.054688 12.296875 -7.316406 12.703125 -7.546875 C 13.117188 -7.785156 13.535156 -7.90625 13.953125 -7.90625 C 14.421875 -7.90625 14.84375 -7.753906 15.21875 -7.453125 C 15.59375 -7.148438 15.78125 -6.753906 15.78125 -6.265625 Z M 10.09375 -14.875 C 10.09375 -15.175781 10.007812 -15.488281 9.84375 -15.8125 C 9.675781 -16.144531 9.421875 -16.3125 9.078125 -16.3125 C 8.554688 -16.3125 8.117188 -16.175781 7.765625 -15.90625 C 7.421875 -15.632812 7.128906 -15.296875 6.890625 -14.890625 C 6.660156 -14.484375 6.476562 -14.046875 6.34375 -13.578125 C 6.21875 -13.109375 6.144531 -12.671875 6.125 -12.265625 C 6.445312 -12.335938 6.835938 -12.429688 7.296875 -12.546875 C 7.753906 -12.671875 8.1875 -12.832031 8.59375 -13.03125 C 9.007812 -13.226562 9.363281 -13.476562 9.65625 -13.78125 C 9.945312 -14.082031 10.09375 -14.445312 10.09375 -14.875 Z M 10.09375 -14.875 "/></g></g><g transform="translate(270.46304, 230.037378)"><g><path d="M 9.25 1.265625 C 7.582031 1.265625 6.285156 1.046875 5.359375 0.609375 C 4.429688 0.179688 3.738281 -0.425781 3.28125 -1.21875 C 2.832031 -2.019531 2.5625 -2.984375 2.46875 -4.109375 C 2.375 -5.234375 2.328125 -6.488281 2.328125 -7.875 C 2.328125 -8.976562 2.359375 -10.085938 2.421875 -11.203125 C 2.492188 -12.316406 2.601562 -13.503906 2.75 -14.765625 C 2.414062 -14.765625 2.15625 -14.757812 1.96875 -14.75 C 1.78125 -14.738281 1.628906 -14.734375 1.515625 -14.734375 C 0.765625 -14.734375 0.113281 -14.894531 -0.4375 -15.21875 C -0.988281 -15.550781 -1.265625 -16.054688 -1.265625 -16.734375 C -1.265625 -17.160156 -1.101562 -17.535156 -0.78125 -17.859375 C -0.46875 -18.191406 -0.0664062 -18.472656 0.421875 -18.703125 C 0.910156 -18.941406 1.441406 -19.128906 2.015625 -19.265625 C 2.597656 -19.410156 3.144531 -19.503906 3.65625 -19.546875 C 3.65625 -20.203125 3.703125 -20.925781 3.796875 -21.71875 C 3.890625 -22.519531 4.054688 -23.265625 4.296875 -23.953125 C 4.546875 -24.648438 4.878906 -25.234375 5.296875 -25.703125 C 5.722656 -26.171875 6.265625 -26.40625 6.921875 -26.40625 C 7.296875 -26.40625 7.628906 -26.289062 7.921875 -26.0625 C 8.222656 -25.84375 8.46875 -25.5625 8.65625 -25.21875 C 8.84375 -24.882812 8.984375 -24.503906 9.078125 -24.078125 C 9.171875 -23.660156 9.21875 -23.253906 9.21875 -22.859375 C 9.21875 -22.390625 9.179688 -21.90625 9.109375 -21.40625 C 9.035156 -20.914062 8.90625 -20.304688 8.71875 -19.578125 C 9.113281 -19.628906 9.378906 -19.660156 9.515625 -19.671875 C 9.660156 -19.679688 9.796875 -19.6875 9.921875 -19.6875 C 10.316406 -19.6875 10.726562 -19.648438 11.15625 -19.578125 C 11.59375 -19.515625 11.992188 -19.398438 12.359375 -19.234375 C 12.722656 -19.066406 13.019531 -18.847656 13.25 -18.578125 C 13.488281 -18.304688 13.609375 -17.984375 13.609375 -17.609375 C 13.609375 -17.191406 13.4375 -16.816406 13.09375 -16.484375 C 12.757812 -16.160156 12.332031 -15.878906 11.8125 -15.640625 C 11.300781 -15.410156 10.75 -15.226562 10.15625 -15.09375 C 9.570312 -14.96875 9.023438 -14.882812 8.515625 -14.84375 C 8.367188 -13.875 8.265625 -12.984375 8.203125 -12.171875 C 8.148438 -11.367188 8.085938 -10.554688 8.015625 -9.734375 C 7.972656 -9.335938 7.929688 -8.929688 7.890625 -8.515625 C 7.859375 -8.109375 7.84375 -7.695312 7.84375 -7.28125 C 7.84375 -6.976562 7.851562 -6.617188 7.875 -6.203125 C 7.894531 -5.796875 7.972656 -5.40625 8.109375 -5.03125 C 8.253906 -4.65625 8.476562 -4.332031 8.78125 -4.0625 C 9.09375 -3.789062 9.519531 -3.65625 10.0625 -3.65625 C 10.382812 -3.65625 10.722656 -3.679688 11.078125 -3.734375 C 11.429688 -3.796875 11.78125 -3.828125 12.125 -3.828125 C 12.738281 -3.828125 13.179688 -3.613281 13.453125 -3.1875 C 13.722656 -2.769531 13.859375 -2.234375 13.859375 -1.578125 C 13.859375 -1.085938 13.707031 -0.660156 13.40625 -0.296875 C 13.113281 0.0664062 12.742188 0.359375 12.296875 0.578125 C 11.859375 0.804688 11.363281 0.976562 10.8125 1.09375 C 10.257812 1.207031 9.738281 1.265625 9.25 1.265625 Z M 9.25 1.265625 "/></g></g><g transform="translate(283.963039, 230.037378)"><g><path d="M 17.015625 -9.109375 C 17.015625 -8.710938 17.007812 -8.117188 17 -7.328125 C 16.988281 -6.546875 16.953125 -5.726562 16.890625 -4.875 C 16.835938 -4.019531 16.765625 -3.207031 16.671875 -2.4375 C 16.578125 -1.675781 16.457031 -1.125 16.3125 -0.78125 C 16.125 -0.332031 15.878906 0.0507812 15.578125 0.375 C 15.273438 0.707031 14.863281 0.875 14.34375 0.875 C 13.550781 0.875 12.976562 0.5625 12.625 -0.0625 C 12.269531 -0.695312 12.035156 -1.484375 11.921875 -2.421875 C 11.804688 -3.359375 11.757812 -4.378906 11.78125 -5.484375 C 11.800781 -6.585938 11.785156 -7.609375 11.734375 -8.546875 C 11.691406 -9.484375 11.566406 -10.265625 11.359375 -10.890625 C 11.148438 -11.523438 10.765625 -11.84375 10.203125 -11.84375 C 9.421875 -11.84375 8.828125 -11.71875 8.421875 -11.46875 C 8.015625 -11.226562 7.722656 -10.910156 7.546875 -10.515625 C 7.367188 -10.117188 7.257812 -9.660156 7.21875 -9.140625 C 7.1875 -8.628906 7.148438 -8.09375 7.109375 -7.53125 C 7.054688 -6.988281 7.019531 -6.257812 7 -5.34375 C 6.976562 -4.425781 6.875 -3.519531 6.6875 -2.625 C 6.5 -1.738281 6.1875 -0.972656 5.75 -0.328125 C 5.3125 0.316406 4.671875 0.640625 3.828125 0.640625 C 3.316406 0.640625 2.898438 0.4375 2.578125 0.03125 C 2.265625 -0.363281 2.015625 -0.878906 1.828125 -1.515625 C 1.640625 -2.148438 1.503906 -2.851562 1.421875 -3.625 C 1.335938 -4.394531 1.289062 -5.148438 1.28125 -5.890625 C 1.269531 -6.628906 1.269531 -7.300781 1.28125 -7.90625 C 1.289062 -8.519531 1.296875 -8.976562 1.296875 -9.28125 C 1.296875 -9.75 1.3125 -10.519531 1.34375 -11.59375 C 1.382812 -12.675781 1.460938 -13.878906 1.578125 -15.203125 C 1.703125 -16.523438 1.859375 -17.890625 2.046875 -19.296875 C 2.234375 -20.703125 2.476562 -21.984375 2.78125 -23.140625 C 3.082031 -24.304688 3.445312 -25.253906 3.875 -25.984375 C 4.3125 -26.710938 4.828125 -27.0625 5.421875 -27.03125 C 5.796875 -27.007812 6.113281 -26.847656 6.375 -26.546875 C 6.644531 -26.242188 6.867188 -25.847656 7.046875 -25.359375 C 7.222656 -24.878906 7.367188 -24.359375 7.484375 -23.796875 C 7.609375 -23.234375 7.695312 -22.675781 7.75 -22.125 C 7.8125 -21.582031 7.847656 -21.078125 7.859375 -20.609375 C 7.867188 -20.140625 7.875 -19.773438 7.875 -19.515625 C 7.875 -18.898438 7.863281 -18.285156 7.84375 -17.671875 C 7.820312 -17.066406 7.785156 -16.460938 7.734375 -15.859375 C 8.273438 -16.585938 8.992188 -17.1875 9.890625 -17.65625 C 10.796875 -18.125 11.707031 -18.359375 12.625 -18.359375 C 13.789062 -18.359375 14.671875 -18.035156 15.265625 -17.390625 C 15.867188 -16.742188 16.300781 -15.945312 16.5625 -15 C 16.820312 -14.050781 16.960938 -13.039062 16.984375 -11.96875 C 17.003906 -10.90625 17.015625 -9.953125 17.015625 -9.109375 Z M 17.015625 -9.109375 "/></g></g><g transform="translate(302.420069, 230.037378)"><g><path d="M 15.78125 -6.265625 C 15.78125 -5.460938 15.53125 -4.679688 15.03125 -3.921875 C 14.53125 -3.160156 13.894531 -2.476562 13.125 -1.875 C 12.363281 -1.28125 11.550781 -0.800781 10.6875 -0.4375 C 9.820312 -0.0703125 9.023438 0.109375 8.296875 0.109375 C 7.054688 0.109375 5.945312 -0.203125 4.96875 -0.828125 C 4 -1.453125 3.1875 -2.242188 2.53125 -3.203125 C 1.875 -4.160156 1.375 -5.21875 1.03125 -6.375 C 0.695312 -7.539062 0.53125 -8.675781 0.53125 -9.78125 C 0.53125 -10.945312 0.691406 -12.195312 1.015625 -13.53125 C 1.347656 -14.875 1.847656 -16.109375 2.515625 -17.234375 C 3.179688 -18.359375 4.023438 -19.296875 5.046875 -20.046875 C 6.066406 -20.796875 7.28125 -21.171875 8.6875 -21.171875 C 9.476562 -21.171875 10.238281 -21.035156 10.96875 -20.765625 C 11.695312 -20.492188 12.328125 -20.109375 12.859375 -19.609375 C 13.398438 -19.117188 13.832031 -18.535156 14.15625 -17.859375 C 14.488281 -17.179688 14.65625 -16.421875 14.65625 -15.578125 C 14.65625 -14.472656 14.421875 -13.441406 13.953125 -12.484375 C 13.484375 -11.523438 12.863281 -10.691406 12.09375 -9.984375 C 11.320312 -9.285156 10.429688 -8.71875 9.421875 -8.28125 C 8.410156 -7.84375 7.378906 -7.601562 6.328125 -7.5625 C 6.421875 -6.882812 6.695312 -6.390625 7.15625 -6.078125 C 7.613281 -5.773438 8.160156 -5.625 8.796875 -5.625 C 9.265625 -5.625 9.71875 -5.738281 10.15625 -5.96875 C 10.601562 -6.207031 11.035156 -6.472656 11.453125 -6.765625 C 11.878906 -7.054688 12.296875 -7.316406 12.703125 -7.546875 C 13.117188 -7.785156 13.535156 -7.90625 13.953125 -7.90625 C 14.421875 -7.90625 14.84375 -7.753906 15.21875 -7.453125 C 15.59375 -7.148438 15.78125 -6.753906 15.78125 -6.265625 Z M 10.09375 -14.875 C 10.09375 -15.175781 10.007812 -15.488281 9.84375 -15.8125 C 9.675781 -16.144531 9.421875 -16.3125 9.078125 -16.3125 C 8.554688 -16.3125 8.117188 -16.175781 7.765625 -15.90625 C 7.421875 -15.632812 7.128906 -15.296875 6.890625 -14.890625 C 6.660156 -14.484375 6.476562 -14.046875 6.34375 -13.578125 C 6.21875 -13.109375 6.144531 -12.671875 6.125 -12.265625 C 6.445312 -12.335938 6.835938 -12.429688 7.296875 -12.546875 C 7.753906 -12.671875 8.1875 -12.832031 8.59375 -13.03125 C 9.007812 -13.226562 9.363281 -13.476562 9.65625 -13.78125 C 9.945312 -14.082031 10.09375 -14.445312 10.09375 -14.875 Z M 10.09375 -14.875 "/></g></g><g transform="translate(318.556787, 230.037378)"><g><path d="M 13.25 -13.15625 C 12.925781 -13.125 12.644531 -13.148438 12.40625 -13.234375 C 12.175781 -13.316406 11.941406 -13.40625 11.703125 -13.5 C 11.492188 -13.59375 11.285156 -13.679688 11.078125 -13.765625 C 10.867188 -13.847656 10.632812 -13.878906 10.375 -13.859375 C 9.90625 -13.828125 9.488281 -13.691406 9.125 -13.453125 C 8.757812 -13.222656 8.429688 -12.929688 8.140625 -12.578125 C 7.847656 -12.234375 7.59375 -11.84375 7.375 -11.40625 C 7.164062 -10.976562 7.003906 -10.550781 6.890625 -10.125 C 6.816406 -9.84375 6.765625 -9.414062 6.734375 -8.84375 C 6.703125 -8.269531 6.6875 -7.65625 6.6875 -7 C 6.65625 -6.320312 6.640625 -5.675781 6.640625 -5.0625 C 6.640625 -4.457031 6.617188 -3.976562 6.578125 -3.625 C 6.554688 -3.25 6.5 -2.804688 6.40625 -2.296875 C 6.3125 -1.796875 6.160156 -1.320312 5.953125 -0.875 C 5.753906 -0.4375 5.488281 -0.0664062 5.15625 0.234375 C 4.832031 0.546875 4.414062 0.703125 3.90625 0.703125 C 3.507812 0.703125 3.160156 0.582031 2.859375 0.34375 C 2.566406 0.113281 2.320312 -0.191406 2.125 -0.578125 C 1.925781 -0.960938 1.757812 -1.410156 1.625 -1.921875 C 1.5 -2.441406 1.40625 -2.972656 1.34375 -3.515625 C 1.269531 -4.078125 1.210938 -4.640625 1.171875 -5.203125 C 1.140625 -5.765625 1.117188 -6.296875 1.109375 -6.796875 C 1.097656 -7.304688 1.097656 -7.769531 1.109375 -8.1875 C 1.117188 -8.613281 1.125 -8.957031 1.125 -9.21875 C 1.101562 -10.03125 1.0625 -10.851562 1 -11.6875 C 0.945312 -12.519531 0.921875 -13.347656 0.921875 -14.171875 C 0.921875 -14.679688 0.941406 -15.253906 0.984375 -15.890625 C 1.035156 -16.523438 1.164062 -17.117188 1.375 -17.671875 C 1.582031 -18.222656 1.890625 -18.6875 2.296875 -19.0625 C 2.710938 -19.4375 3.285156 -19.625 4.015625 -19.625 C 4.410156 -19.625 4.75 -19.492188 5.03125 -19.234375 C 5.3125 -18.972656 5.539062 -18.65625 5.71875 -18.28125 C 5.894531 -17.90625 6.03125 -17.503906 6.125 -17.078125 C 6.21875 -16.660156 6.273438 -16.273438 6.296875 -15.921875 C 6.859375 -16.835938 7.488281 -17.582031 8.1875 -18.15625 C 8.894531 -18.726562 9.8125 -19.039062 10.9375 -19.09375 C 11.5 -19.113281 12.054688 -19.054688 12.609375 -18.921875 C 13.160156 -18.796875 13.660156 -18.585938 14.109375 -18.296875 C 14.566406 -18.003906 14.941406 -17.625 15.234375 -17.15625 C 15.535156 -16.6875 15.695312 -16.132812 15.71875 -15.5 C 15.757812 -14.75 15.535156 -14.175781 15.046875 -13.78125 C 14.554688 -13.382812 13.957031 -13.175781 13.25 -13.15625 Z M 13.25 -13.15625 "/></g></g></g><path stroke-linecap="round" transform="matrix(1.501765, 0, 0, 1.5, 102.847491, 196.287381)" fill="none" stroke-linejoin="miter" d="M 0.499523 0.00112119 L 112.370497 0.00112119 " stroke="#429dc8" stroke-width="1" stroke-opacity="1" stroke-miterlimit="4"/></svg>